<?xml version="1.0" encoding="UTF-8" standalone="no"?>
<!-- Created with Inkscape (http://www.inkscape.org/) -->

<svg
   xmlns:dc="http://purl.org/dc/elements/1.1/"
   xmlns:cc="http://creativecommons.org/ns#"
   xmlns:rdf="http://www.w3.org/1999/02/22-rdf-syntax-ns#"
   xmlns:svg="http://www.w3.org/2000/svg"
   xmlns="http://www.w3.org/2000/svg"
   xmlns:sodipodi="http://sodipodi.sourceforge.net/DTD/sodipodi-0.dtd"
   xmlns:inkscape="http://www.inkscape.org/namespaces/inkscape"
   width="210mm"
   height="297mm"
   id="svg17412"
   version="1.1"
   inkscape:version="0.48.3.1 r9886"
   sodipodi:docname="FRAME.svg">
  <defs
     id="defs17414" />
  <sodipodi:namedview
     id="base"
     pagecolor="#ffffff"
     bordercolor="#666666"
     borderopacity="1.0"
     inkscape:pageopacity="0.0"
     inkscape:pageshadow="2"
     inkscape:zoom="1.979899"
     inkscape:cx="218.91223"
     inkscape:cy="856.30226"
     inkscape:document-units="px"
     inkscape:current-layer="layer1"
     showgrid="false"
     inkscape:window-width="1615"
     inkscape:window-height="1026"
     inkscape:window-x="1985"
     inkscape:window-y="24"
     inkscape:window-maximized="1" />
  <metadata
     id="metadata17417">
    <rdf:RDF>
      <cc:Work
         rdf:about="">
        <dc:format>image/svg+xml</dc:format>
        <dc:type
           rdf:resource="http://purl.org/dc/dcmitype/StillImage" />
        <dc:title></dc:title>
      </cc:Work>
    </rdf:RDF>
  </metadata>
  <g
     inkscape:label="Ebene 1"
     inkscape:groupmode="layer"
     id="layer1">
    <path
       inkscape:connector-curvature="0"
       style="fill:#007f00;fill-opacity:0.54901961;stroke:none"
       d="m 243.72991,647.84656 -3,6.625 -0.25,2.375 0.59375,4 -7.125,1.90625 -1.5,-3.75 -1.375,-1.9375 -5.90625,-4.25 -3.4375,1.96875 0.71875,7.28125 0.96875,2.15625 2.53125,3.15625 -5.21875,5.21875 -3.1875,-2.53125 -2.15625,-0.96875 -7.25,-0.71875 -1.96875,3.4375 4.25,5.90625 1.9375,1.40625 3.75,1.46875 -1.90625,7.125 -4,-0.59375 -2.375,0.25 -6.625,3 0,3.9375 6.625,3.03125 2.375,0.21875 4,-0.59375 1.90625,7.125 -3.75,1.5 -1.9375,1.375 -4.25,5.9375 1.96875,3.40625 7.25,-0.71875 2.15625,-0.96875 3.1875,-2.53125 5.21875,5.21875 -2.53125,3.1875 -0.96875,2.15625 -0.71875,7.25 3.4375,2 5.90625,-4.25 1.375,-1.9375 1.5,-3.78125 7.125,1.90625 -0.59375,4.03125 0.25,2.34375 3,6.65625 3.9375,0 3.03125,-6.65625 0.21875,-2.34375 -0.59375,-4.03125 7.125,-1.90625 1.5,3.78125 1.375,1.9375 5.9375,4.25 3.40625,-2 -0.71875,-7.25 -0.96875,-2.15625 -2.53125,-3.1875 5.21875,-5.21875 3.1875,2.53125 2.15625,0.96875 7.25,0.71875 2,-3.40625 -4.28125,-5.9375 -1.90625,-1.375 -3.78125,-1.5 1.90625,-7.125 4.03125,0.59375 2.34375,-0.21875 6.65625,-3.03125 0,-3.9375 -6.65625,-3 -2.34375,-0.25 -4.03125,0.59375 -1.90625,-7.125 3.78125,-1.46875 1.90625,-1.40625 4.28125,-5.90625 -2,-3.4375 -7.25,0.71875 -2.15625,0.96875 -3.1875,2.53125 -5.21875,-5.21875 2.53125,-3.15625 0.96875,-2.15625 0.71875,-7.28125 -3.40625,-1.96875 -5.9375,4.25 -1.375,1.9375 -1.5,3.75 -7.125,-1.90625 0.59375,-4 -0.21875,-2.375 -3.03125,-6.625 -3.9375,0 z m -4.875,36.34375 13.65625,0 c 2.32327,1.94994 3.8125,4.8858 3.8125,8.15625 0,5.87075 -4.75426,10.625 -10.625,10.625 -5.87074,0 -10.625,-4.75425 -10.625,-10.625 0,-3.27045 1.45798,-6.20631 3.78125,-8.15625 z"
       id="path17172" />
    <path
       style="color:#000000;fill:#007f00;fill-opacity:0.54901961;fill-rule:nonzero;stroke:none;stroke-width:70.86614227;marker:none;visibility:visible;display:inline;overflow:visible;enable-background:accumulate"
       d="m 75.799848,62.987296 0,222.718754 407.000002,0 0,-222.718754 -407.000002,0 z m 105.375002,20.59375 c 6.41748,-0.08094 12.41238,3.98124 14.5,10.40625 2.56936,7.907674 -1.77984,16.399394 -9.6875,18.968754 -7.9077,2.56937 -16.39941,-1.74857 -18.96875,-9.65625 -2.56934,-7.907704 1.77978,-16.430634 9.6875,-19.000004 1.48269,-0.48176 2.98779,-0.70007 4.46875,-0.71875 z m 212.78125,0 35.40625,0 c 8.31688,0 15.0625,6.74561 15.0625,15.0625 0,8.316884 -6.74562,15.062504 -15.0625,15.062504 l -35.40625,0 c -8.31689,0 -15.0625,-6.74562 -15.0625,-15.062504 0,-8.31689 6.74561,-15.0625 15.0625,-15.0625 z M 95.456098,149.1123 c 0.184244,-0.0187 0.34207,0 0.53125,0 3.026878,0 5.500002,2.44016 5.500002,5.46875 0,3.02859 -2.473124,5.5 -5.500002,5.5 -3.026878,0 -5.46875,-2.47141 -5.46875,-5.5 0,-2.8393 2.173847,-5.18793 4.9375,-5.46875 z m 111.437502,0.0312 c 3.02688,0 5.46875,2.44015 5.46875,5.46875 0,3.02859 -2.44187,5.5 -5.46875,5.5 -3.02688,0 -5.5,-2.47141 -5.5,-5.5 0,-3.0286 2.47312,-5.46875 5.5,-5.46875 z m -55.4375,20.21875 c 22.47067,0 40.6875,18.21681 40.6875,40.6875 0,22.47069 -18.21683,40.6875 -40.6875,40.6875 -22.47073,0 -40.6875,-18.21681 -40.6875,-40.6875 0,-22.47069 18.21677,-40.6875 40.6875,-40.6875 z m 153.90625,9.5 c 5.38152,0 9.75,4.36848 9.75,9.75 0,5.38152 -4.36848,9.75 -9.75,9.75 -5.38151,0 -9.75,-4.36848 -9.75,-9.75 0,-5.38152 4.36849,-9.75 9.75,-9.75 z M 96.049848,259.95605 c 3.026878,0 5.500002,2.47141 5.500002,5.5 0,3.02859 -2.473124,5.46875 -5.500002,5.46875 -3.026878,0 -5.46875,-2.44016 -5.46875,-5.46875 0,-3.02859 2.441872,-5.5 5.46875,-5.5 z m 110.843752,0.0937 c 3.02688,0 5.5,2.44016 5.5,5.46875 0,3.02859 -2.47312,5.5 -5.5,5.5 -3.02688,0 -5.46875,-2.47141 -5.46875,-5.5 0,-3.02859 2.44187,-5.46875 5.46875,-5.46875 z"
       id="rect4350"
       inkscape:connector-curvature="0" />
  </g>
</svg>
