solid OpenSCAD_Model
  facet normal -1 0 0
    outer loop
      vertex 0 0 50
      vertex 0 0 0
      vertex 0 -9.94522 50
    endloop
  endfacet
  facet normal -1 0 0
    outer loop
      vertex 0 -9.94522 50
      vertex 0 0 0
      vertex 0 -9.94522 0
    endloop
  endfacet
  facet normal 0 -1 0
    outer loop
      vertex 2.09057 -9.94522 2.09057
      vertex 0 -9.94522 0
      vertex 50 -9.94522 0
    endloop
  endfacet
  facet normal 0 -1 0
    outer loop
      vertex 0 -9.94522 50
      vertex 0 -9.94522 0
      vertex 2.09057 -9.94522 2.09057
    endloop
  endfacet
  facet normal 0 -1 0
    outer loop
      vertex 50 -9.94522 50
      vertex 0 -9.94522 50
      vertex 2.09057 -9.94522 47.9094
    endloop
  endfacet
  facet normal 0 -1 0
    outer loop
      vertex 50 -9.94522 50
      vertex 47.9094 -9.94522 47.9094
      vertex 50 -9.94522 0
    endloop
  endfacet
  facet normal 0 -1 0
    outer loop
      vertex 50 -9.94522 50
      vertex 2.09057 -9.94522 47.9094
      vertex 47.9094 -9.94522 47.9094
    endloop
  endfacet
  facet normal 0 -1 0
    outer loop
      vertex 47.9094 -9.94522 47.9094
      vertex 47.9094 -9.94522 2.09057
      vertex 50 -9.94522 0
    endloop
  endfacet
  facet normal 0 -1 0
    outer loop
      vertex 2.09057 -9.94522 2.09057
      vertex 2.09057 -9.94522 47.9094
      vertex 0 -9.94522 50
    endloop
  endfacet
  facet normal 0 -1 0
    outer loop
      vertex 47.9094 -9.94522 2.09057
      vertex 2.09057 -9.94522 2.09057
      vertex 50 -9.94522 0
    endloop
  endfacet
  facet normal 0 0 -1
    outer loop
      vertex 50 0 0
      vertex 50 -9.94522 0
      vertex 0 0 0
    endloop
  endfacet
  facet normal 0 0 -1
    outer loop
      vertex 0 0 0
      vertex 50 -9.94522 0
      vertex 0 -9.94522 0
    endloop
  endfacet
  facet normal 0 0 1
    outer loop
      vertex 50 -9.94522 50
      vertex 50 0 50
      vertex 0 0 50
    endloop
  endfacet
  facet normal 0 0 1
    outer loop
      vertex 0 -9.94522 50
      vertex 50 -9.94522 50
      vertex 0 0 50
    endloop
  endfacet
  facet normal -0 1 0
    outer loop
      vertex 38.2 0 40
      vertex 11.8 0 40
      vertex 39.1 0 41.5588
    endloop
  endfacet
  facet normal 0 1 -0
    outer loop
      vertex 9.1 0 8.44115
      vertex 50 0 0
      vertex 0 0 0
    endloop
  endfacet
  facet normal 0 1 -0
    outer loop
      vertex 10.9 0 8.44115
      vertex 50 0 0
      vertex 9.1 0 8.44115
    endloop
  endfacet
  facet normal 0 1 -0
    outer loop
      vertex 8.2 0 10
      vertex 9.1 0 8.44115
      vertex 0 0 0
    endloop
  endfacet
  facet normal 0 1 -0
    outer loop
      vertex 11.8 0 10
      vertex 50 0 0
      vertex 10.9 0 8.44115
    endloop
  endfacet
  facet normal 0 1 -0
    outer loop
      vertex 19.85 0 19.75
      vertex 50 0 0
      vertex 11.8 0 10
    endloop
  endfacet
  facet normal 0 1 0
    outer loop
      vertex 0 0 50
      vertex 11.8 0 10
      vertex 10.9 0 11.5588
    endloop
  endfacet
  facet normal 0 1 0
    outer loop
      vertex 8.2 0 10
      vertex 0 0 50
      vertex 9.1 0 11.5588
    endloop
  endfacet
  facet normal 0 1 -0
    outer loop
      vertex 41.8 0 10
      vertex 50 0 0
      vertex 40.9 0 8.44115
    endloop
  endfacet
  facet normal 0 1 -0
    outer loop
      vertex 0 0 50
      vertex 8.2 0 10
      vertex 0 0 0
    endloop
  endfacet
  facet normal 0 1 0
    outer loop
      vertex 0 0 50
      vertex 9.1 0 38.4412
      vertex 11.8 0 10
    endloop
  endfacet
  facet normal 0 1 0
    outer loop
      vertex 50 0 50
      vertex 11.8 0 40
      vertex 10.9 0 41.5588
    endloop
  endfacet
  facet normal 0 1 0
    outer loop
      vertex 50 0 50
      vertex 10.9 0 41.5588
      vertex 0 0 50
    endloop
  endfacet
  facet normal 0 1 0
    outer loop
      vertex 9.1 0 41.5588
      vertex 0 0 50
      vertex 10.9 0 41.5588
    endloop
  endfacet
  facet normal 0 1 0
    outer loop
      vertex 8.2 0 40
      vertex 0 0 50
      vertex 9.1 0 41.5588
    endloop
  endfacet
  facet normal 0 1 0
    outer loop
      vertex 19.85 0 19.75
      vertex 9.1 0 38.4412
      vertex 10.9 0 38.4412
    endloop
  endfacet
  facet normal 0 1 0
    outer loop
      vertex 0 0 50
      vertex 8.2 0 40
      vertex 9.1 0 38.4412
    endloop
  endfacet
  facet normal -0 1 -0
    outer loop
      vertex 39.1 0 8.44115
      vertex 50 0 0
      vertex 19.85 0 19.75
    endloop
  endfacet
  facet normal 0 1 0
    outer loop
      vertex 9.1 0 38.4412
      vertex 19.85 0 19.75
      vertex 11.8 0 10
    endloop
  endfacet
  facet normal 0 1 -0
    outer loop
      vertex 30.25 0 30.15
      vertex 39.1 0 11.5588
      vertex 30.25 0 19.75
    endloop
  endfacet
  facet normal 0 1 -0
    outer loop
      vertex 39.1 0 38.4412
      vertex 50 0 0
      vertex 30.25 0 30.15
    endloop
  endfacet
  facet normal 0 1 0
    outer loop
      vertex 38.2 0 40
      vertex 30.25 0 30.15
      vertex 11.8 0 40
    endloop
  endfacet
  facet normal 0 1 0
    outer loop
      vertex 30.25 0 30.15
      vertex 40.9 0 11.5588
      vertex 39.1 0 11.5588
    endloop
  endfacet
  facet normal 0 1 -0
    outer loop
      vertex 40.9 0 8.44115
      vertex 50 0 0
      vertex 39.1 0 8.44115
    endloop
  endfacet
  facet normal 0 1 -0
    outer loop
      vertex 30.25 0 19.75
      vertex 39.1 0 8.44115
      vertex 19.85 0 19.75
    endloop
  endfacet
  facet normal 0 1 0
    outer loop
      vertex 30.25 0 30.15
      vertex 50 0 0
      vertex 41.8 0 10
    endloop
  endfacet
  facet normal 0 1 0
    outer loop
      vertex 30.25 0 30.15
      vertex 41.8 0 10
      vertex 40.9 0 11.5588
    endloop
  endfacet
  facet normal 0 1 0
    outer loop
      vertex 19.85 0 30.15
      vertex 11.8 0 40
      vertex 30.25 0 30.15
    endloop
  endfacet
  facet normal 0 1 0
    outer loop
      vertex 38.2 0 10
      vertex 30.25 0 19.75
      vertex 39.1 0 11.5588
    endloop
  endfacet
  facet normal 0 1 0
    outer loop
      vertex 30.25 0 19.75
      vertex 38.2 0 10
      vertex 39.1 0 8.44115
    endloop
  endfacet
  facet normal -0 1 0
    outer loop
      vertex 39.1 0 38.4412
      vertex 30.25 0 30.15
      vertex 38.2 0 40
    endloop
  endfacet
  facet normal 0 1 -0
    outer loop
      vertex 40.9 0 38.4412
      vertex 50 0 0
      vertex 39.1 0 38.4412
    endloop
  endfacet
  facet normal 0 1 0
    outer loop
      vertex 40.9 0 41.5588
      vertex 50 0 50
      vertex 41.8 0 40
    endloop
  endfacet
  facet normal 0 1 0
    outer loop
      vertex 50 0 50
      vertex 50 0 0
      vertex 40.9 0 38.4412
    endloop
  endfacet
  facet normal 0 1 0
    outer loop
      vertex 50 0 50
      vertex 40.9 0 38.4412
      vertex 41.8 0 40
    endloop
  endfacet
  facet normal 0 1 0
    outer loop
      vertex 50 0 50
      vertex 40.9 0 41.5588
      vertex 39.1 0 41.5588
    endloop
  endfacet
  facet normal 0 1 0
    outer loop
      vertex 50 0 50
      vertex 39.1 0 41.5588
      vertex 11.8 0 40
    endloop
  endfacet
  facet normal 0 1 0
    outer loop
      vertex 9.1 0 11.5588
      vertex 0 0 50
      vertex 10.9 0 11.5588
    endloop
  endfacet
  facet normal 0 1 -0
    outer loop
      vertex 11.8 0 40
      vertex 19.85 0 30.15
      vertex 10.9 0 38.4412
    endloop
  endfacet
  facet normal 0 1 0
    outer loop
      vertex 19.85 0 19.75
      vertex 10.9 0 38.4412
      vertex 19.85 0 30.15
    endloop
  endfacet
  facet normal 1 0 0
    outer loop
      vertex 50 0 0
      vertex 50 0 50
      vertex 50 -9.94522 50
    endloop
  endfacet
  facet normal 1 0 0
    outer loop
      vertex 50 -9.94522 0
      vertex 50 0 0
      vertex 50 -9.94522 50
    endloop
  endfacet
  facet normal 0.105683 -0.9944 0
    outer loop
      vertex 2.09057 -9.94522 47.9094
      vertex 2.09057 -9.94522 2.09057
      vertex 6.18034 -9.51056 6.18034
    endloop
  endfacet
  facet normal 0.105683 -0.9944 0
    outer loop
      vertex 6.18034 -9.51056 43.8197
      vertex 2.09057 -9.94522 47.9094
      vertex 6.18034 -9.51056 6.18034
    endloop
  endfacet
  facet normal -2.20409e-17 -0.9944 0.105683
    outer loop
      vertex 6.18034 -9.51056 6.18034
      vertex 2.09057 -9.94522 2.09057
      vertex 47.9094 -9.94522 2.09057
    endloop
  endfacet
  facet normal -2.24443e-17 -0.9944 0.105683
    outer loop
      vertex 43.8197 -9.51056 6.18034
      vertex 6.18034 -9.51056 6.18034
      vertex 47.9094 -9.94522 2.09057
    endloop
  endfacet
  facet normal -0.105683 -0.9944 0
    outer loop
      vertex 43.8197 -9.51056 43.8197
      vertex 43.8197 -9.51056 6.18034
      vertex 47.9094 -9.94522 2.09057
    endloop
  endfacet
  facet normal -0.105683 -0.9944 0
    outer loop
      vertex 47.9094 -9.94522 47.9094
      vertex 43.8197 -9.51056 43.8197
      vertex 47.9094 -9.94522 2.09057
    endloop
  endfacet
  facet normal 1.6389e-17 -0.9944 -0.105683
    outer loop
      vertex 47.9094 -9.94522 47.9094
      vertex 2.09057 -9.94522 47.9094
      vertex 6.18034 -9.51056 43.8197
    endloop
  endfacet
  facet normal 1.99505e-17 -0.9944 -0.105683
    outer loop
      vertex 43.8197 -9.51056 43.8197
      vertex 47.9094 -9.94522 47.9094
      vertex 6.18034 -9.51056 43.8197
    endloop
  endfacet
  facet normal 0 5.3829e-16 1
    outer loop
      vertex 10.9 -3.3 8.44115
      vertex 10.9 0 8.44115
      vertex 9.1 0 8.44115
    endloop
  endfacet
  facet normal 0 5.3829e-16 1
    outer loop
      vertex 9.1 -3.3 8.44115
      vertex 10.9 -3.3 8.44115
      vertex 9.1 0 8.44115
    endloop
  endfacet
  facet normal 0.866025 2.69145e-16 0.5
    outer loop
      vertex 9.1 -3.3 8.44115
      vertex 9.1 0 8.44115
      vertex 8.2 0 10
    endloop
  endfacet
  facet normal 0.866025 2.69145e-16 0.5
    outer loop
      vertex 8.2 -3.3 10
      vertex 9.1 -3.3 8.44115
      vertex 8.2 0 10
    endloop
  endfacet
  facet normal 0.866025 -2.54426e-16 -0.5
    outer loop
      vertex 8.2 0 10
      vertex 9.1 0 11.5588
      vertex 9.1 -3.3 11.5588
    endloop
  endfacet
  facet normal 0.866025 -2.69145e-16 -0.5
    outer loop
      vertex 8.2 -3.3 10
      vertex 8.2 0 10
      vertex 9.1 -3.3 11.5588
    endloop
  endfacet
  facet normal 0 -5.3829e-16 -1
    outer loop
      vertex 10.9 0 11.5588
      vertex 10.9 -3.3 11.5588
      vertex 9.1 0 11.5588
    endloop
  endfacet
  facet normal 0 -5.3829e-16 -1
    outer loop
      vertex 9.1 0 11.5588
      vertex 10.9 -3.3 11.5588
      vertex 9.1 -3.3 11.5588
    endloop
  endfacet
  facet normal -0.866025 -2.69145e-16 -0.5
    outer loop
      vertex 11.8 0 10
      vertex 11.8 -3.3 10
      vertex 10.9 0 11.5588
    endloop
  endfacet
  facet normal -0.866025 -2.69145e-16 -0.5
    outer loop
      vertex 10.9 0 11.5588
      vertex 11.8 -3.3 10
      vertex 10.9 -3.3 11.5588
    endloop
  endfacet
  facet normal -0.866025 2.69145e-16 0.5
    outer loop
      vertex 11.8 0 10
      vertex 10.9 0 8.44115
      vertex 11.8 -3.3 10
    endloop
  endfacet
  facet normal -0.866025 2.54426e-16 0.5
    outer loop
      vertex 11.8 -3.3 10
      vertex 10.9 0 8.44115
      vertex 10.9 -3.3 8.44115
    endloop
  endfacet
  facet normal 0.866025 0 0.5
    outer loop
      vertex 9.1 -3.3 38.4412
      vertex 9.1 0 38.4412
      vertex 8.2 0 40
    endloop
  endfacet
  facet normal 0.866025 0 0.5
    outer loop
      vertex 8.2 -3.3 40
      vertex 9.1 -3.3 38.4412
      vertex 8.2 0 40
    endloop
  endfacet
  facet normal 0 0 1
    outer loop
      vertex 10.9 -3.3 38.4412
      vertex 10.9 0 38.4412
      vertex 9.1 0 38.4412
    endloop
  endfacet
  facet normal 0 0 1
    outer loop
      vertex 9.1 -3.3 38.4412
      vertex 10.9 -3.3 38.4412
      vertex 9.1 0 38.4412
    endloop
  endfacet
  facet normal 0.866025 0 -0.5
    outer loop
      vertex 8.2 0 40
      vertex 9.1 0 41.5588
      vertex 9.1 -3.3 41.5588
    endloop
  endfacet
  facet normal 0.866025 0 -0.5
    outer loop
      vertex 8.2 -3.3 40
      vertex 8.2 0 40
      vertex 9.1 -3.3 41.5588
    endloop
  endfacet
  facet normal 0 0 -1
    outer loop
      vertex 10.9 0 41.5588
      vertex 10.9 -3.3 41.5588
      vertex 9.1 0 41.5588
    endloop
  endfacet
  facet normal 0 0 -1
    outer loop
      vertex 9.1 0 41.5588
      vertex 10.9 -3.3 41.5588
      vertex 9.1 -3.3 41.5588
    endloop
  endfacet
  facet normal -0.866025 0 -0.5
    outer loop
      vertex 11.8 0 40
      vertex 11.8 -3.3 40
      vertex 10.9 0 41.5588
    endloop
  endfacet
  facet normal -0.866025 0 -0.5
    outer loop
      vertex 10.9 0 41.5588
      vertex 11.8 -3.3 40
      vertex 10.9 -3.3 41.5588
    endloop
  endfacet
  facet normal -0.866025 0 0.5
    outer loop
      vertex 11.8 0 40
      vertex 10.9 0 38.4412
      vertex 11.8 -3.3 40
    endloop
  endfacet
  facet normal -0.866025 0 0.5
    outer loop
      vertex 11.8 -3.3 40
      vertex 10.9 0 38.4412
      vertex 10.9 -3.3 38.4412
    endloop
  endfacet
  facet normal 1 0 0
    outer loop
      vertex 19.85 0 19.75
      vertex 19.85 0 30.15
      vertex 19.85 -0.713577 30.15
    endloop
  endfacet
  facet normal 1 0 0
    outer loop
      vertex 19.85 -1.1893 19.75
      vertex 19.85 0 19.75
      vertex 19.85 -0.713577 19.85
    endloop
  endfacet
  facet normal 1 0 -0
    outer loop
      vertex 19.85 -0.713577 30.15
      vertex 19.85 -0.713577 19.85
      vertex 19.85 0 19.75
    endloop
  endfacet
  facet normal 0 0 1
    outer loop
      vertex 30.25 -1.1893 19.75
      vertex 30.25 0 19.75
      vertex 19.85 0 19.75
    endloop
  endfacet
  facet normal 0 0 1
    outer loop
      vertex 19.85 -1.1893 19.75
      vertex 30.25 -1.1893 19.75
      vertex 19.85 0 19.75
    endloop
  endfacet
  facet normal 0 0 -1
    outer loop
      vertex 30.25 0 30.15
      vertex 30.15 -0.713577 30.15
      vertex 19.85 0 30.15
    endloop
  endfacet
  facet normal 0 0 -1
    outer loop
      vertex 30.25 0 30.15
      vertex 30.25 -1.1893 30.15
      vertex 30.15 -0.713577 30.15
    endloop
  endfacet
  facet normal 0 -0 -1
    outer loop
      vertex 19.85 -0.713577 30.15
      vertex 19.85 0 30.15
      vertex 30.15 -0.713577 30.15
    endloop
  endfacet
  facet normal -1 0 0
    outer loop
      vertex 30.25 -1.1893 30.15
      vertex 30.25 0 30.15
      vertex 30.25 -1.1893 19.75
    endloop
  endfacet
  facet normal -1 -0 0
    outer loop
      vertex 30.25 -1.1893 19.75
      vertex 30.25 0 30.15
      vertex 30.25 0 19.75
    endloop
  endfacet
  facet normal 0.866025 2.69145e-16 0.5
    outer loop
      vertex 39.1 -3.3 8.44115
      vertex 39.1 0 8.44115
      vertex 38.2 0 10
    endloop
  endfacet
  facet normal 0.866025 2.69145e-16 0.5
    outer loop
      vertex 38.2 -3.3 10
      vertex 39.1 -3.3 8.44115
      vertex 38.2 0 10
    endloop
  endfacet
  facet normal 0 5.3829e-16 1
    outer loop
      vertex 40.9 -3.3 8.44115
      vertex 40.9 0 8.44115
      vertex 39.1 0 8.44115
    endloop
  endfacet
  facet normal 0 5.3829e-16 1
    outer loop
      vertex 39.1 -3.3 8.44115
      vertex 40.9 -3.3 8.44115
      vertex 39.1 0 8.44115
    endloop
  endfacet
  facet normal 0.866025 -2.54426e-16 -0.5
    outer loop
      vertex 38.2 0 10
      vertex 39.1 0 11.5588
      vertex 39.1 -3.3 11.5588
    endloop
  endfacet
  facet normal 0.866025 -2.69145e-16 -0.5
    outer loop
      vertex 38.2 -3.3 10
      vertex 38.2 0 10
      vertex 39.1 -3.3 11.5588
    endloop
  endfacet
  facet normal 0 -5.3829e-16 -1
    outer loop
      vertex 40.9 0 11.5588
      vertex 40.9 -3.3 11.5588
      vertex 39.1 0 11.5588
    endloop
  endfacet
  facet normal 0 -5.3829e-16 -1
    outer loop
      vertex 39.1 0 11.5588
      vertex 40.9 -3.3 11.5588
      vertex 39.1 -3.3 11.5588
    endloop
  endfacet
  facet normal -0.866025 -2.69145e-16 -0.5
    outer loop
      vertex 41.8 0 10
      vertex 41.8 -3.3 10
      vertex 40.9 0 11.5588
    endloop
  endfacet
  facet normal -0.866025 -2.69145e-16 -0.5
    outer loop
      vertex 40.9 0 11.5588
      vertex 41.8 -3.3 10
      vertex 40.9 -3.3 11.5588
    endloop
  endfacet
  facet normal -0.866025 2.69145e-16 0.5
    outer loop
      vertex 41.8 0 10
      vertex 40.9 0 8.44115
      vertex 41.8 -3.3 10
    endloop
  endfacet
  facet normal -0.866025 2.54426e-16 0.5
    outer loop
      vertex 41.8 -3.3 10
      vertex 40.9 0 8.44115
      vertex 40.9 -3.3 8.44115
    endloop
  endfacet
  facet normal 0 0 1
    outer loop
      vertex 40.9 -3.3 38.4412
      vertex 40.9 0 38.4412
      vertex 39.1 0 38.4412
    endloop
  endfacet
  facet normal 0 0 1
    outer loop
      vertex 39.1 -3.3 38.4412
      vertex 40.9 -3.3 38.4412
      vertex 39.1 0 38.4412
    endloop
  endfacet
  facet normal 0.866025 0 0.5
    outer loop
      vertex 39.1 -3.3 38.4412
      vertex 39.1 0 38.4412
      vertex 38.2 0 40
    endloop
  endfacet
  facet normal 0.866025 0 0.5
    outer loop
      vertex 38.2 -3.3 40
      vertex 39.1 -3.3 38.4412
      vertex 38.2 0 40
    endloop
  endfacet
  facet normal 0.866025 0 -0.5
    outer loop
      vertex 38.2 0 40
      vertex 39.1 0 41.5588
      vertex 39.1 -3.3 41.5588
    endloop
  endfacet
  facet normal 0.866025 0 -0.5
    outer loop
      vertex 38.2 -3.3 40
      vertex 38.2 0 40
      vertex 39.1 -3.3 41.5588
    endloop
  endfacet
  facet normal 0 0 -1
    outer loop
      vertex 40.9 0 41.5588
      vertex 40.9 -3.3 41.5588
      vertex 39.1 0 41.5588
    endloop
  endfacet
  facet normal 0 0 -1
    outer loop
      vertex 39.1 0 41.5588
      vertex 40.9 -3.3 41.5588
      vertex 39.1 -3.3 41.5588
    endloop
  endfacet
  facet normal -0.866025 0 -0.5
    outer loop
      vertex 41.8 0 40
      vertex 41.8 -3.3 40
      vertex 40.9 0 41.5588
    endloop
  endfacet
  facet normal -0.866025 0 -0.5
    outer loop
      vertex 40.9 0 41.5588
      vertex 41.8 -3.3 40
      vertex 40.9 -3.3 41.5588
    endloop
  endfacet
  facet normal -0.866025 0 0.5
    outer loop
      vertex 41.8 0 40
      vertex 40.9 0 38.4412
      vertex 41.8 -3.3 40
    endloop
  endfacet
  facet normal -0.866025 0 0.5
    outer loop
      vertex 41.8 -3.3 40
      vertex 40.9 0 38.4412
      vertex 40.9 -3.3 38.4412
    endloop
  endfacet
  facet normal -1.94384e-16 -0.976106 -0.217295
    outer loop
      vertex 9.0266 -9.32717 42.9958
      vertex 6.18034 -9.51056 43.8197
      vertex 7.85522 -9.13771 42.1448
    endloop
  endfacet
  facet normal 4.10203e-17 -0.976106 -0.217295
    outer loop
      vertex 43.8197 -9.51056 43.8197
      vertex 6.18034 -9.51056 43.8197
      vertex 9.0266 -9.32717 42.9958
    endloop
  endfacet
  facet normal 0 -0.976106 -0.217295
    outer loop
      vertex 43.8197 -9.51056 43.8197
      vertex 9.0266 -9.32717 42.9958
      vertex 10.9734 -9.32717 42.9958
    endloop
  endfacet
  facet normal 7.07633e-17 -0.976106 -0.217295
    outer loop
      vertex 13.15 -8.66025 40
      vertex 43.8197 -9.51056 43.8197
      vertex 12.5484 -9.07243 41.8515
    endloop
  endfacet
  facet normal 4.98982e-16 -0.976106 -0.217295
    outer loop
      vertex 39.0266 -9.32717 42.9958
      vertex 43.8197 -9.51056 43.8197
      vertex 13.15 -8.66025 40
    endloop
  endfacet
  facet normal 6.51466e-17 -0.976106 -0.217295
    outer loop
      vertex 36.85 -8.66025 40
      vertex 37.4516 -9.07243 41.8515
      vertex 13.15 -8.66025 40
    endloop
  endfacet
  facet normal 1.12986e-16 -0.976106 -0.217295
    outer loop
      vertex 37.4516 -9.07243 41.8515
      vertex 39.0266 -9.32717 42.9958
      vertex 13.15 -8.66025 40
    endloop
  endfacet
  facet normal 0 -0.976106 -0.217295
    outer loop
      vertex 40.9734 -9.32717 42.9958
      vertex 43.8197 -9.51056 43.8197
      vertex 39.0266 -9.32717 42.9958
    endloop
  endfacet
  facet normal 3.59706e-17 -0.976106 -0.217295
    outer loop
      vertex 10.9734 -9.32717 42.9958
      vertex 12.5484 -9.07243 41.8515
      vertex 43.8197 -9.51056 43.8197
    endloop
  endfacet
  facet normal -2.75377e-16 -0.976106 -0.217295
    outer loop
      vertex 40.9734 -9.32717 42.9958
      vertex 42.1448 -9.13771 42.1448
      vertex 43.8197 -9.51056 43.8197
    endloop
  endfacet
  facet normal 0.217295 -0.976106 7.64247e-16
    outer loop
      vertex 7.4516 -9.22757 8.14848
      vertex 6.18034 -9.51056 6.18034
      vertex 7.85522 -9.13771 7.85522
    endloop
  endfacet
  facet normal 0.217295 -0.976106 3.2122e-16
    outer loop
      vertex 6.85 -9.36149 10
      vertex 6.18034 -9.51056 6.18034
      vertex 7.4516 -9.22757 8.14848
    endloop
  endfacet
  facet normal 0.217295 -0.976106 -6.88951e-17
    outer loop
      vertex 7.4516 -9.22757 11.8515
      vertex 9.0266 -8.87695 12.9958
      vertex 6.18034 -9.51056 43.8197
    endloop
  endfacet
  facet normal 0.217295 -0.976106 0
    outer loop
      vertex 6.18034 -9.51056 43.8197
      vertex 6.18034 -9.51056 6.18034
      vertex 6.85 -9.36149 10
    endloop
  endfacet
  facet normal 0.217295 -0.976106 -1.30697e-16
    outer loop
      vertex 10 -8.66025 12.9958
      vertex 6.18034 -9.51056 43.8197
      vertex 9.0266 -8.87695 12.9958
    endloop
  endfacet
  facet normal 0.217295 -0.976106 1.13497e-15
    outer loop
      vertex 6.85 -9.36149 40
      vertex 6.18034 -9.51056 43.8197
      vertex 10 -8.66025 12.9958
    endloop
  endfacet
  facet normal 0.217295 -0.976106 0
    outer loop
      vertex 10 -8.66025 37.0042
      vertex 9.0266 -8.87695 37.0042
      vertex 10 -8.66025 12.9958
    endloop
  endfacet
  facet normal 0.217295 -0.976106 2.49325e-17
    outer loop
      vertex 9.0266 -8.87695 37.0042
      vertex 7.4516 -9.22757 38.1485
      vertex 10 -8.66025 12.9958
    endloop
  endfacet
  facet normal 0.217295 -0.976106 7.71556e-17
    outer loop
      vertex 7.4516 -9.22757 38.1485
      vertex 6.85 -9.36149 40
      vertex 10 -8.66025 12.9958
    endloop
  endfacet
  facet normal 0.217295 -0.976106 -5.3719e-16
    outer loop
      vertex 7.85522 -9.13771 42.1448
      vertex 6.18034 -9.51056 43.8197
      vertex 7.4516 -9.22757 41.8515
    endloop
  endfacet
  facet normal 0.217295 -0.976106 -5.18707e-17
    outer loop
      vertex 6.85 -9.36149 10
      vertex 7.4516 -9.22757 11.8515
      vertex 6.18034 -9.51056 43.8197
    endloop
  endfacet
  facet normal 0.217295 -0.976106 -3.24712e-16
    outer loop
      vertex 6.85 -9.36149 40
      vertex 7.4516 -9.22757 41.8515
      vertex 6.18034 -9.51056 43.8197
    endloop
  endfacet
  facet normal -4.60266e-17 -0.976106 0.217295
    outer loop
      vertex 10.9734 -9.32717 7.00417
      vertex 6.18034 -9.51056 6.18034
      vertex 43.8197 -9.51056 6.18034
    endloop
  endfacet
  facet normal -4.1508e-16 -0.976106 0.217295
    outer loop
      vertex 42.1448 -9.13771 7.85522
      vertex 40.9734 -9.32717 7.00417
      vertex 43.8197 -9.51056 6.18034
    endloop
  endfacet
  facet normal -4.886e-17 -0.976106 0.217295
    outer loop
      vertex 13.15 -8.66025 10
      vertex 12.5484 -9.07243 8.14848
      vertex 36.85 -8.66025 10
    endloop
  endfacet
  facet normal 0 -0.976106 0.217295
    outer loop
      vertex 40.9734 -9.32717 7.00417
      vertex 39.0266 -9.32717 7.00417
      vertex 43.8197 -9.51056 6.18034
    endloop
  endfacet
  facet normal 0 -0.976106 0.217295
    outer loop
      vertex 12.5484 -9.07243 8.14848
      vertex 43.8197 -9.51056 6.18034
      vertex 39.0266 -9.32717 7.00417
    endloop
  endfacet
  facet normal -6.96261e-17 -0.976106 0.217295
    outer loop
      vertex 12.5484 -9.07243 8.14848
      vertex 39.0266 -9.32717 7.00417
      vertex 37.4516 -9.07243 8.14848
    endloop
  endfacet
  facet normal -6.77739e-17 -0.976106 0.217295
    outer loop
      vertex 36.85 -8.66025 10
      vertex 12.5484 -9.07243 8.14848
      vertex 37.4516 -9.07243 8.14848
    endloop
  endfacet
  facet normal 0 -0.976106 0.217295
    outer loop
      vertex 9.0266 -9.32717 7.00417
      vertex 6.18034 -9.51056 6.18034
      vertex 10.9734 -9.32717 7.00417
    endloop
  endfacet
  facet normal 2.80459e-16 -0.976106 0.217295
    outer loop
      vertex 7.85522 -9.13771 7.85522
      vertex 6.18034 -9.51056 6.18034
      vertex 9.0266 -9.32717 7.00417
    endloop
  endfacet
  facet normal -8.78304e-17 -0.976106 0.217295
    outer loop
      vertex 12.5484 -9.07243 8.14848
      vertex 10.9734 -9.32717 7.00417
      vertex 43.8197 -9.51056 6.18034
    endloop
  endfacet
  facet normal -0.217295 -0.976106 -1.08396e-15
    outer loop
      vertex 43.15 -9.36149 10
      vertex 43.8197 -9.51056 6.18034
      vertex 40 -8.66025 37.0042
    endloop
  endfacet
  facet normal -0.217295 -0.976106 0
    outer loop
      vertex 40 -8.66025 37.0042
      vertex 40 -8.66025 12.9958
      vertex 40.9734 -8.87695 12.9958
    endloop
  endfacet
  facet normal -0.217295 -0.976106 3.18885e-16
    outer loop
      vertex 42.5484 -9.22757 8.14848
      vertex 43.8197 -9.51056 6.18034
      vertex 43.15 -9.36149 10
    endloop
  endfacet
  facet normal -0.217295 -0.976106 4.37853e-17
    outer loop
      vertex 42.5484 -9.22757 11.8515
      vertex 40 -8.66025 37.0042
      vertex 40.9734 -8.87695 12.9958
    endloop
  endfacet
  facet normal -0.217295 -0.976106 -6.42963e-17
    outer loop
      vertex 42.5484 -9.22757 11.8515
      vertex 43.15 -9.36149 10
      vertex 40 -8.66025 37.0042
    endloop
  endfacet
  facet normal -0.217295 -0.976106 2.23015e-15
    outer loop
      vertex 42.1448 -9.13771 7.85522
      vertex 43.8197 -9.51056 6.18034
      vertex 42.5484 -9.22757 8.14848
    endloop
  endfacet
  facet normal -0.217295 -0.976106 -2.24779e-15
    outer loop
      vertex 43.8197 -9.51056 43.8197
      vertex 42.1448 -9.13771 42.1448
      vertex 42.5484 -9.22757 41.8515
    endloop
  endfacet
  facet normal -0.217295 -0.976106 -0
    outer loop
      vertex 43.8197 -9.51056 6.18034
      vertex 43.8197 -9.51056 43.8197
      vertex 43.15 -9.36149 40
    endloop
  endfacet
  facet normal -0.217295 -0.976106 5.18707e-17
    outer loop
      vertex 43.8197 -9.51056 6.18034
      vertex 43.15 -9.36149 40
      vertex 42.5484 -9.22757 38.1485
    endloop
  endfacet
  facet normal -0.217295 -0.976106 -1.34048e-17
    outer loop
      vertex 43.8197 -9.51056 6.18034
      vertex 40.9734 -8.87695 37.0042
      vertex 40 -8.66025 37.0042
    endloop
  endfacet
  facet normal -0.217295 -0.976106 8.76846e-17
    outer loop
      vertex 43.8197 -9.51056 6.18034
      vertex 42.5484 -9.22757 38.1485
      vertex 40.9734 -8.87695 37.0042
    endloop
  endfacet
  facet normal -0.217295 -0.976106 -3.26301e-16
    outer loop
      vertex 42.5484 -9.22757 41.8515
      vertex 43.15 -9.36149 40
      vertex 43.8197 -9.51056 43.8197
    endloop
  endfacet
  facet normal 0 -1 0
    outer loop
      vertex 7.4516 -3.3 8.14848
      vertex 9.0266 -3.3 7.00417
      vertex 10.9734 -3.3 7.00417
    endloop
  endfacet
  facet normal 0 -1 0
    outer loop
      vertex 10.9 -3.3 8.44115
      vertex 7.4516 -3.3 8.14848
      vertex 12.5484 -3.3 8.14848
    endloop
  endfacet
  facet normal 0 -1 0
    outer loop
      vertex 12.5484 -3.3 8.14848
      vertex 7.4516 -3.3 8.14848
      vertex 10.9734 -3.3 7.00417
    endloop
  endfacet
  facet normal -8.71308e-17 -1 1.19925e-16
    outer loop
      vertex 7.4516 -3.3 11.8515
      vertex 7.4516 -3.3 8.14848
      vertex 9.0266 -3.3 12.9958
    endloop
  endfacet
  facet normal 3.69093e-16 -1 1.19925e-16
    outer loop
      vertex 6.85 -3.3 10
      vertex 7.4516 -3.3 8.14848
      vertex 7.4516 -3.3 11.8515
    endloop
  endfacet
  facet normal -4.58787e-17 -1 2.58395e-16
    outer loop
      vertex 10.9 -3.3 11.5588
      vertex 11.8 -3.3 10
      vertex 12.5484 -3.3 11.8515
    endloop
  endfacet
  facet normal -1.15544e-15 -1 4.6704e-16
    outer loop
      vertex 9.0266 -3.3 12.9958
      vertex 7.4516 -3.3 8.14848
      vertex 8.2 -3.3 10
    endloop
  endfacet
  facet normal 0 -1 0
    outer loop
      vertex 9.0266 -3.3 12.9958
      vertex 9.1 -3.3 11.5588
      vertex 10.9734 -3.3 12.9958
    endloop
  endfacet
  facet normal 4.53324e-16 -1 2.31567e-17
    outer loop
      vertex 9.0266 -3.3 12.9958
      vertex 8.2 -3.3 10
      vertex 9.1 -3.3 11.5588
    endloop
  endfacet
  facet normal 0 -1 0
    outer loop
      vertex 10.9734 -3.3 12.9958
      vertex 10.9 -3.3 11.5588
      vertex 12.5484 -3.3 11.8515
    endloop
  endfacet
  facet normal -0 -1 0
    outer loop
      vertex 9.1 -3.3 11.5588
      vertex 10.9 -3.3 11.5588
      vertex 10.9734 -3.3 12.9958
    endloop
  endfacet
  facet normal 0 -1 2.39851e-16
    outer loop
      vertex 12.5484 -3.3 11.8515
      vertex 11.8 -3.3 10
      vertex 13.15 -3.3 10
    endloop
  endfacet
  facet normal 0 -1 0
    outer loop
      vertex 13.15 -3.3 10
      vertex 10.9 -3.3 8.44115
      vertex 12.5484 -3.3 8.14848
    endloop
  endfacet
  facet normal 0 -1 0
    outer loop
      vertex 9.1 -3.3 8.44115
      vertex 7.4516 -3.3 8.14848
      vertex 10.9 -3.3 8.44115
    endloop
  endfacet
  facet normal 0 -1 0
    outer loop
      vertex 11.8 -3.3 10
      vertex 10.9 -3.3 8.44115
      vertex 13.15 -3.3 10
    endloop
  endfacet
  facet normal 0 -1 0
    outer loop
      vertex 9.1 -3.3 8.44115
      vertex 8.2 -3.3 10
      vertex 7.4516 -3.3 8.14848
    endloop
  endfacet
  facet normal 0 -1 0
    outer loop
      vertex 7.4516 -3.3 38.1485
      vertex 9.0266 -3.3 37.0042
      vertex 10.9734 -3.3 37.0042
    endloop
  endfacet
  facet normal 0 -1 0
    outer loop
      vertex 10.9 -3.3 38.4412
      vertex 7.4516 -3.3 38.1485
      vertex 12.5484 -3.3 38.1485
    endloop
  endfacet
  facet normal 0 -1 0
    outer loop
      vertex 12.5484 -3.3 38.1485
      vertex 7.4516 -3.3 38.1485
      vertex 10.9734 -3.3 37.0042
    endloop
  endfacet
  facet normal -8.71308e-17 -1 1.19925e-16
    outer loop
      vertex 7.4516 -3.3 41.8515
      vertex 7.4516 -3.3 38.1485
      vertex 9.0266 -3.3 42.9958
    endloop
  endfacet
  facet normal 3.69093e-16 -1 1.19925e-16
    outer loop
      vertex 6.85 -3.3 40
      vertex 7.4516 -3.3 38.1485
      vertex 7.4516 -3.3 41.8515
    endloop
  endfacet
  facet normal -4.58787e-17 -1 2.58395e-16
    outer loop
      vertex 10.9 -3.3 41.5588
      vertex 11.8 -3.3 40
      vertex 12.5484 -3.3 41.8515
    endloop
  endfacet
  facet normal -1.15544e-15 -1 4.6704e-16
    outer loop
      vertex 9.0266 -3.3 42.9958
      vertex 7.4516 -3.3 38.1485
      vertex 8.2 -3.3 40
    endloop
  endfacet
  facet normal 0 -1 0
    outer loop
      vertex 9.0266 -3.3 42.9958
      vertex 9.1 -3.3 41.5588
      vertex 10.9734 -3.3 42.9958
    endloop
  endfacet
  facet normal 4.53324e-16 -1 2.31567e-17
    outer loop
      vertex 9.0266 -3.3 42.9958
      vertex 8.2 -3.3 40
      vertex 9.1 -3.3 41.5588
    endloop
  endfacet
  facet normal 0 -1 0
    outer loop
      vertex 10.9734 -3.3 42.9958
      vertex 10.9 -3.3 41.5588
      vertex 12.5484 -3.3 41.8515
    endloop
  endfacet
  facet normal -0 -1 0
    outer loop
      vertex 9.1 -3.3 41.5588
      vertex 10.9 -3.3 41.5588
      vertex 10.9734 -3.3 42.9958
    endloop
  endfacet
  facet normal 0 -1 2.39851e-16
    outer loop
      vertex 12.5484 -3.3 41.8515
      vertex 11.8 -3.3 40
      vertex 13.15 -3.3 40
    endloop
  endfacet
  facet normal 0 -1 0
    outer loop
      vertex 13.15 -3.3 40
      vertex 10.9 -3.3 38.4412
      vertex 12.5484 -3.3 38.1485
    endloop
  endfacet
  facet normal 0 -1 0
    outer loop
      vertex 9.1 -3.3 38.4412
      vertex 7.4516 -3.3 38.1485
      vertex 10.9 -3.3 38.4412
    endloop
  endfacet
  facet normal 0 -1 0
    outer loop
      vertex 11.8 -3.3 40
      vertex 10.9 -3.3 38.4412
      vertex 13.15 -3.3 40
    endloop
  endfacet
  facet normal 0 -1 0
    outer loop
      vertex 9.1 -3.3 38.4412
      vertex 8.2 -3.3 40
      vertex 7.4516 -3.3 38.1485
    endloop
  endfacet
  facet normal 0 -0.205713 0.978612
    outer loop
      vertex 19.85 -1.1893 19.75
      vertex 19.563 -2.07912 19.563
      vertex 30.437 -2.07912 19.563
    endloop
  endfacet
  facet normal -1.44654e-14 -0.205713 0.978612
    outer loop
      vertex 19.85 -0.713577 19.85
      vertex 19.563 -2.07912 19.563
      vertex 19.85 -1.1893 19.75
    endloop
  endfacet
  facet normal -2.15211e-16 -0.205713 0.978612
    outer loop
      vertex 30.25 -1.1893 19.75
      vertex 19.85 -1.1893 19.75
      vertex 30.437 -2.07912 19.563
    endloop
  endfacet
  facet normal 0.978612 -0.205713 0
    outer loop
      vertex 19.563 -2.07912 30.437
      vertex 19.563 -2.07912 19.563
      vertex 19.85 -0.713577 19.85
    endloop
  endfacet
  facet normal 0.978612 -0.205713 0
    outer loop
      vertex 19.85 -0.713577 30.15
      vertex 19.563 -2.07912 30.437
      vertex 19.85 -0.713577 19.85
    endloop
  endfacet
  facet normal -0 -0.205713 -0.978612
    outer loop
      vertex 19.563 -2.07912 30.437
      vertex 19.85 -0.713577 30.15
      vertex 30.437 -2.07912 30.437
    endloop
  endfacet
  facet normal 2.173e-16 -0.205713 -0.978612
    outer loop
      vertex 30.15 -0.713577 30.15
      vertex 30.437 -2.07912 30.437
      vertex 19.85 -0.713577 30.15
    endloop
  endfacet
  facet normal -0.978612 -0.205713 1.13127e-14
    outer loop
      vertex 30.15 -0.713577 30.15
      vertex 30.25 -1.1893 30.15
      vertex 30.437 -2.07912 30.437
    endloop
  endfacet
  facet normal -0.978612 -0.205713 0
    outer loop
      vertex 30.437 -2.07912 30.437
      vertex 30.25 -1.1893 30.15
      vertex 30.25 -1.1893 19.75
    endloop
  endfacet
  facet normal -0.978612 -0.205713 0
    outer loop
      vertex 30.437 -2.07912 30.437
      vertex 30.25 -1.1893 19.75
      vertex 30.437 -2.07912 19.563
    endloop
  endfacet
  facet normal 0 -1 0
    outer loop
      vertex 37.4516 -3.3 8.14848
      vertex 39.0266 -3.3 7.00417
      vertex 40.9734 -3.3 7.00417
    endloop
  endfacet
  facet normal 0 -1 0
    outer loop
      vertex 40.9 -3.3 8.44115
      vertex 37.4516 -3.3 8.14848
      vertex 42.5484 -3.3 8.14848
    endloop
  endfacet
  facet normal 0 -1 0
    outer loop
      vertex 42.5484 -3.3 8.14848
      vertex 37.4516 -3.3 8.14848
      vertex 40.9734 -3.3 7.00417
    endloop
  endfacet
  facet normal -8.71308e-17 -1 1.19925e-16
    outer loop
      vertex 37.4516 -3.3 11.8515
      vertex 37.4516 -3.3 8.14848
      vertex 39.0266 -3.3 12.9958
    endloop
  endfacet
  facet normal 3.69093e-16 -1 1.19925e-16
    outer loop
      vertex 36.85 -3.3 10
      vertex 37.4516 -3.3 8.14848
      vertex 37.4516 -3.3 11.8515
    endloop
  endfacet
  facet normal -4.58787e-17 -1 2.58395e-16
    outer loop
      vertex 40.9 -3.3 11.5588
      vertex 41.8 -3.3 10
      vertex 42.5484 -3.3 11.8515
    endloop
  endfacet
  facet normal -1.15544e-15 -1 4.6704e-16
    outer loop
      vertex 39.0266 -3.3 12.9958
      vertex 37.4516 -3.3 8.14848
      vertex 38.2 -3.3 10
    endloop
  endfacet
  facet normal 0 -1 0
    outer loop
      vertex 39.0266 -3.3 12.9958
      vertex 39.1 -3.3 11.5588
      vertex 40.9734 -3.3 12.9958
    endloop
  endfacet
  facet normal 4.53324e-16 -1 2.31567e-17
    outer loop
      vertex 39.0266 -3.3 12.9958
      vertex 38.2 -3.3 10
      vertex 39.1 -3.3 11.5588
    endloop
  endfacet
  facet normal 0 -1 0
    outer loop
      vertex 40.9734 -3.3 12.9958
      vertex 40.9 -3.3 11.5588
      vertex 42.5484 -3.3 11.8515
    endloop
  endfacet
  facet normal -0 -1 0
    outer loop
      vertex 39.1 -3.3 11.5588
      vertex 40.9 -3.3 11.5588
      vertex 40.9734 -3.3 12.9958
    endloop
  endfacet
  facet normal 0 -1 2.39851e-16
    outer loop
      vertex 42.5484 -3.3 11.8515
      vertex 41.8 -3.3 10
      vertex 43.15 -3.3 10
    endloop
  endfacet
  facet normal 0 -1 0
    outer loop
      vertex 43.15 -3.3 10
      vertex 40.9 -3.3 8.44115
      vertex 42.5484 -3.3 8.14848
    endloop
  endfacet
  facet normal 0 -1 0
    outer loop
      vertex 39.1 -3.3 8.44115
      vertex 37.4516 -3.3 8.14848
      vertex 40.9 -3.3 8.44115
    endloop
  endfacet
  facet normal 0 -1 0
    outer loop
      vertex 41.8 -3.3 10
      vertex 40.9 -3.3 8.44115
      vertex 43.15 -3.3 10
    endloop
  endfacet
  facet normal 0 -1 0
    outer loop
      vertex 39.1 -3.3 8.44115
      vertex 38.2 -3.3 10
      vertex 37.4516 -3.3 8.14848
    endloop
  endfacet
  facet normal 0 -1 0
    outer loop
      vertex 37.4516 -3.3 38.1485
      vertex 39.0266 -3.3 37.0042
      vertex 40.9734 -3.3 37.0042
    endloop
  endfacet
  facet normal 0 -1 0
    outer loop
      vertex 40.9 -3.3 38.4412
      vertex 37.4516 -3.3 38.1485
      vertex 42.5484 -3.3 38.1485
    endloop
  endfacet
  facet normal 0 -1 0
    outer loop
      vertex 42.5484 -3.3 38.1485
      vertex 37.4516 -3.3 38.1485
      vertex 40.9734 -3.3 37.0042
    endloop
  endfacet
  facet normal -8.71308e-17 -1 1.19925e-16
    outer loop
      vertex 37.4516 -3.3 41.8515
      vertex 37.4516 -3.3 38.1485
      vertex 39.0266 -3.3 42.9958
    endloop
  endfacet
  facet normal 3.69093e-16 -1 1.19925e-16
    outer loop
      vertex 36.85 -3.3 40
      vertex 37.4516 -3.3 38.1485
      vertex 37.4516 -3.3 41.8515
    endloop
  endfacet
  facet normal -4.58787e-17 -1 2.58395e-16
    outer loop
      vertex 40.9 -3.3 41.5588
      vertex 41.8 -3.3 40
      vertex 42.5484 -3.3 41.8515
    endloop
  endfacet
  facet normal -1.15544e-15 -1 4.6704e-16
    outer loop
      vertex 39.0266 -3.3 42.9958
      vertex 37.4516 -3.3 38.1485
      vertex 38.2 -3.3 40
    endloop
  endfacet
  facet normal 0 -1 0
    outer loop
      vertex 39.0266 -3.3 42.9958
      vertex 39.1 -3.3 41.5588
      vertex 40.9734 -3.3 42.9958
    endloop
  endfacet
  facet normal 4.53324e-16 -1 2.31567e-17
    outer loop
      vertex 39.0266 -3.3 42.9958
      vertex 38.2 -3.3 40
      vertex 39.1 -3.3 41.5588
    endloop
  endfacet
  facet normal 0 -1 0
    outer loop
      vertex 40.9734 -3.3 42.9958
      vertex 40.9 -3.3 41.5588
      vertex 42.5484 -3.3 41.8515
    endloop
  endfacet
  facet normal -0 -1 0
    outer loop
      vertex 39.1 -3.3 41.5588
      vertex 40.9 -3.3 41.5588
      vertex 40.9734 -3.3 42.9958
    endloop
  endfacet
  facet normal 0 -1 2.39851e-16
    outer loop
      vertex 42.5484 -3.3 41.8515
      vertex 41.8 -3.3 40
      vertex 43.15 -3.3 40
    endloop
  endfacet
  facet normal 0 -1 0
    outer loop
      vertex 43.15 -3.3 40
      vertex 40.9 -3.3 38.4412
      vertex 42.5484 -3.3 38.1485
    endloop
  endfacet
  facet normal 0 -1 0
    outer loop
      vertex 39.1 -3.3 38.4412
      vertex 37.4516 -3.3 38.1485
      vertex 40.9 -3.3 38.4412
    endloop
  endfacet
  facet normal 0 -1 0
    outer loop
      vertex 41.8 -3.3 40
      vertex 40.9 -3.3 38.4412
      vertex 43.15 -3.3 40
    endloop
  endfacet
  facet normal 0 -1 0
    outer loop
      vertex 39.1 -3.3 38.4412
      vertex 38.2 -3.3 40
      vertex 37.4516 -3.3 38.1485
    endloop
  endfacet
  facet normal -0.587785 0 -0.809017
    outer loop
      vertex 42.5484 -3.3 41.8515
      vertex 42.5484 -9.22757 41.8515
      vertex 40.9734 -3.3 42.9958
    endloop
  endfacet
  facet normal -0.587785 1.40198e-15 -0.809017
    outer loop
      vertex 40.9734 -3.3 42.9958
      vertex 42.5484 -9.22757 41.8515
      vertex 42.1448 -9.13771 42.1448
    endloop
  endfacet
  facet normal -0.587785 0 -0.809017
    outer loop
      vertex 40.9734 -3.3 42.9958
      vertex 42.1448 -9.13771 42.1448
      vertex 40.9734 -9.32717 42.9958
    endloop
  endfacet
  facet normal 0 0 -1
    outer loop
      vertex 40.9734 -3.3 42.9958
      vertex 40.9734 -9.32717 42.9958
      vertex 39.0266 -3.3 42.9958
    endloop
  endfacet
  facet normal 0 0 -1
    outer loop
      vertex 39.0266 -3.3 42.9958
      vertex 40.9734 -9.32717 42.9958
      vertex 39.0266 -9.32717 42.9958
    endloop
  endfacet
  facet normal 0.587785 0 -0.809017
    outer loop
      vertex 39.0266 -3.3 42.9958
      vertex 39.0266 -9.32717 42.9958
      vertex 37.4516 -3.3 41.8515
    endloop
  endfacet
  facet normal 0.587785 0 -0.809017
    outer loop
      vertex 37.4516 -3.3 41.8515
      vertex 39.0266 -9.32717 42.9958
      vertex 37.4516 -9.07243 41.8515
    endloop
  endfacet
  facet normal 0.951057 0 -0.309017
    outer loop
      vertex 36.85 -3.3 40
      vertex 37.4516 -3.3 41.8515
      vertex 37.4516 -9.07243 41.8515
    endloop
  endfacet
  facet normal 0.951057 -4.09625e-16 -0.309017
    outer loop
      vertex 36.85 -8.66025 40
      vertex 36.85 -3.3 40
      vertex 37.4516 -9.07243 41.8515
    endloop
  endfacet
  facet normal 0.951057 0 0.309017
    outer loop
      vertex 36.85 -8.66025 40
      vertex 37.4516 -7.98765 38.1485
      vertex 37.4516 -3.3 38.1485
    endloop
  endfacet
  facet normal 0.951057 4.09625e-16 0.309017
    outer loop
      vertex 36.85 -3.3 40
      vertex 36.85 -8.66025 40
      vertex 37.4516 -3.3 38.1485
    endloop
  endfacet
  facet normal -2.69399e-15 -0.939904 -0.34144
    outer loop
      vertex 12.5484 -7.98765 38.1485
      vertex 12.1448 -7.88112 37.8552
      vertex 13.3826 -7.43145 36.6174
    endloop
  endfacet
  facet normal 9.16483e-17 -0.939904 -0.34144
    outer loop
      vertex 37.8552 -7.88112 37.8552
      vertex 12.5484 -7.98765 38.1485
      vertex 36.6174 -7.43145 36.6174
    endloop
  endfacet
  facet normal 1.04416e-16 -0.939904 -0.34144
    outer loop
      vertex 36.6174 -7.43145 36.6174
      vertex 12.5484 -7.98765 38.1485
      vertex 13.3826 -7.43145 36.6174
    endloop
  endfacet
  facet normal 6.70438e-17 -0.939904 -0.34144
    outer loop
      vertex 37.4516 -7.98765 38.1485
      vertex 12.5484 -7.98765 38.1485
      vertex 37.8552 -7.88112 37.8552
    endloop
  endfacet
  facet normal 6.26499e-17 -0.939904 -0.34144
    outer loop
      vertex 36.85 -8.66025 40
      vertex 12.5484 -7.98765 38.1485
      vertex 37.4516 -7.98765 38.1485
    endloop
  endfacet
  facet normal 1.02366e-16 -0.939904 -0.34144
    outer loop
      vertex 13.15 -8.66025 40
      vertex 12.5484 -7.98765 38.1485
      vertex 36.85 -8.66025 40
    endloop
  endfacet
  facet normal -0.951057 3.15175e-16 0.309017
    outer loop
      vertex 13.15 -8.66025 40
      vertex 13.15 -3.3 40
      vertex 12.5484 -3.3 38.1485
    endloop
  endfacet
  facet normal -0.951057 0 0.309017
    outer loop
      vertex 13.15 -8.66025 40
      vertex 12.5484 -3.3 38.1485
      vertex 12.5484 -7.98765 38.1485
    endloop
  endfacet
  facet normal -0.951057 -4.09625e-16 -0.309017
    outer loop
      vertex 13.15 -3.3 40
      vertex 13.15 -8.66025 40
      vertex 12.5484 -3.3 41.8515
    endloop
  endfacet
  facet normal -0.951057 0 -0.309017
    outer loop
      vertex 12.5484 -3.3 41.8515
      vertex 13.15 -8.66025 40
      vertex 12.5484 -9.07243 41.8515
    endloop
  endfacet
  facet normal -0.587785 0 -0.809017
    outer loop
      vertex 12.5484 -3.3 41.8515
      vertex 12.5484 -9.07243 41.8515
      vertex 10.9734 -3.3 42.9958
    endloop
  endfacet
  facet normal -0.587785 0 -0.809017
    outer loop
      vertex 10.9734 -3.3 42.9958
      vertex 12.5484 -9.07243 41.8515
      vertex 10.9734 -9.32717 42.9958
    endloop
  endfacet
  facet normal 0 0 -1
    outer loop
      vertex 10.9734 -3.3 42.9958
      vertex 10.9734 -9.32717 42.9958
      vertex 9.0266 -3.3 42.9958
    endloop
  endfacet
  facet normal 0 0 -1
    outer loop
      vertex 9.0266 -3.3 42.9958
      vertex 10.9734 -9.32717 42.9958
      vertex 9.0266 -9.32717 42.9958
    endloop
  endfacet
  facet normal 0.587785 0 -0.809017
    outer loop
      vertex 9.0266 -3.3 42.9958
      vertex 9.0266 -9.32717 42.9958
      vertex 7.4516 -3.3 41.8515
    endloop
  endfacet
  facet normal 0.587785 -4.0715e-16 -0.809017
    outer loop
      vertex 7.4516 -3.3 41.8515
      vertex 9.0266 -9.32717 42.9958
      vertex 7.85522 -9.13771 42.1448
    endloop
  endfacet
  facet normal 0.587785 0 -0.809017
    outer loop
      vertex 7.4516 -3.3 41.8515
      vertex 7.85522 -9.13771 42.1448
      vertex 7.4516 -9.22757 41.8515
    endloop
  endfacet
  facet normal 0.951057 0 -0.309017
    outer loop
      vertex 6.85 -3.3 40
      vertex 7.4516 -3.3 41.8515
      vertex 7.4516 -9.22757 41.8515
    endloop
  endfacet
  facet normal 0.951057 -3.62237e-16 -0.309017
    outer loop
      vertex 6.85 -9.36149 40
      vertex 6.85 -3.3 40
      vertex 7.4516 -9.22757 41.8515
    endloop
  endfacet
  facet normal 0.951057 0 0.309017
    outer loop
      vertex 7.4516 -9.22757 38.1485
      vertex 7.4516 -3.3 38.1485
      vertex 6.85 -3.3 40
    endloop
  endfacet
  facet normal 0.951057 3.62237e-16 0.309017
    outer loop
      vertex 6.85 -9.36149 40
      vertex 7.4516 -9.22757 38.1485
      vertex 6.85 -3.3 40
    endloop
  endfacet
  facet normal 0.587785 0 0.809017
    outer loop
      vertex 9.0266 -8.87695 37.0042
      vertex 9.0266 -3.3 37.0042
      vertex 7.4516 -3.3 38.1485
    endloop
  endfacet
  facet normal 0.587785 0 0.809017
    outer loop
      vertex 7.4516 -9.22757 38.1485
      vertex 9.0266 -8.87695 37.0042
      vertex 7.4516 -3.3 38.1485
    endloop
  endfacet
  facet normal 0 0 1
    outer loop
      vertex 10 -8.66025 37.0042
      vertex 10.9734 -8.30664 37.0042
      vertex 10.9734 -3.3 37.0042
    endloop
  endfacet
  facet normal 0 0 1
    outer loop
      vertex 9.0266 -8.87695 37.0042
      vertex 10 -8.66025 37.0042
      vertex 9.0266 -3.3 37.0042
    endloop
  endfacet
  facet normal 0 0 1
    outer loop
      vertex 9.0266 -3.3 37.0042
      vertex 10 -8.66025 37.0042
      vertex 10.9734 -3.3 37.0042
    endloop
  endfacet
  facet normal 0.34144 -0.939904 0
    outer loop
      vertex 10 -8.66025 37.0042
      vertex 10 -8.66025 12.9958
      vertex 10.9734 -8.30664 12.9958
    endloop
  endfacet
  facet normal 0.34144 -0.939904 -1.33823e-16
    outer loop
      vertex 12.1448 -7.88112 12.1448
      vertex 10 -8.66025 37.0042
      vertex 10.9734 -8.30664 12.9958
    endloop
  endfacet
  facet normal 0.34144 -0.939904 -8.2896e-17
    outer loop
      vertex 12.1448 -7.88112 12.1448
      vertex 13.3826 -7.43145 13.3826
      vertex 10 -8.66025 37.0042
    endloop
  endfacet
  facet normal 0.34144 -0.939904 0
    outer loop
      vertex 13.3826 -7.43145 13.3826
      vertex 13.3826 -7.43145 36.6174
      vertex 10 -8.66025 37.0042
    endloop
  endfacet
  facet normal 0.34144 -0.939904 1.90278e-14
    outer loop
      vertex 13.3826 -7.43145 36.6174
      vertex 10.9734 -8.30664 37.0042
      vertex 10 -8.66025 37.0042
    endloop
  endfacet
  facet normal 0.34144 -0.939904 -2.4194e-16
    outer loop
      vertex 13.3826 -7.43145 36.6174
      vertex 12.1448 -7.88112 37.8552
      vertex 10.9734 -8.30664 37.0042
    endloop
  endfacet
  facet normal 0 -7.096e-16 -1
    outer loop
      vertex 10.9734 -3.3 12.9958
      vertex 10.9734 -8.30664 12.9958
      vertex 9.0266 -3.3 12.9958
    endloop
  endfacet
  facet normal 2.25871e-16 -6.21771e-16 -1
    outer loop
      vertex 9.0266 -3.3 12.9958
      vertex 10.9734 -8.30664 12.9958
      vertex 10 -8.66025 12.9958
    endloop
  endfacet
  facet normal 1.41813e-16 -6.37036e-16 -1
    outer loop
      vertex 9.0266 -3.3 12.9958
      vertex 10 -8.66025 12.9958
      vertex 9.0266 -8.87695 12.9958
    endloop
  endfacet
  facet normal 0.587785 -5.15373e-16 -0.809017
    outer loop
      vertex 9.0266 -3.3 12.9958
      vertex 9.0266 -8.87695 12.9958
      vertex 7.4516 -3.3 11.8515
    endloop
  endfacet
  facet normal 0.587785 -4.84888e-16 -0.809017
    outer loop
      vertex 7.4516 -3.3 11.8515
      vertex 9.0266 -8.87695 12.9958
      vertex 7.4516 -9.22757 11.8515
    endloop
  endfacet
  facet normal 0.951057 -1.90146e-16 -0.309017
    outer loop
      vertex 6.85 -3.3 10
      vertex 7.4516 -3.3 11.8515
      vertex 7.4516 -9.22757 11.8515
    endloop
  endfacet
  facet normal 0.951057 -1.81119e-16 -0.309017
    outer loop
      vertex 6.85 -9.36149 10
      vertex 6.85 -3.3 10
      vertex 7.4516 -9.22757 11.8515
    endloop
  endfacet
  facet normal 0.951057 9.26053e-17 0.309017
    outer loop
      vertex 7.4516 -9.22757 8.14848
      vertex 7.4516 -3.3 8.14848
      vertex 6.85 -3.3 10
    endloop
  endfacet
  facet normal 0.951057 1.81119e-16 0.309017
    outer loop
      vertex 6.85 -9.36149 10
      vertex 7.4516 -9.22757 8.14848
      vertex 6.85 -3.3 10
    endloop
  endfacet
  facet normal 0.587785 3.65813e-16 0.809017
    outer loop
      vertex 7.85522 -9.13771 7.85522
      vertex 9.0266 -9.32717 7.00417
      vertex 9.0266 -3.3 7.00417
    endloop
  endfacet
  facet normal 0.587785 2.42444e-16 0.809017
    outer loop
      vertex 7.4516 -9.22757 8.14848
      vertex 7.85522 -9.13771 7.85522
      vertex 7.4516 -3.3 8.14848
    endloop
  endfacet
  facet normal 0.587785 4.10939e-16 0.809017
    outer loop
      vertex 7.4516 -3.3 8.14848
      vertex 7.85522 -9.13771 7.85522
      vertex 9.0266 -3.3 7.00417
    endloop
  endfacet
  facet normal 0 4.42087e-16 1
    outer loop
      vertex 10.9734 -9.32717 7.00417
      vertex 10.9734 -3.3 7.00417
      vertex 9.0266 -3.3 7.00417
    endloop
  endfacet
  facet normal 0 4.42087e-16 1
    outer loop
      vertex 9.0266 -9.32717 7.00417
      vertex 10.9734 -9.32717 7.00417
      vertex 9.0266 -3.3 7.00417
    endloop
  endfacet
  facet normal -0.587785 2.4896e-16 0.809017
    outer loop
      vertex 12.5484 -9.07243 8.14848
      vertex 12.5484 -3.3 8.14848
      vertex 10.9734 -3.3 7.00417
    endloop
  endfacet
  facet normal -0.587785 3.57656e-16 0.809017
    outer loop
      vertex 10.9734 -9.32717 7.00417
      vertex 12.5484 -9.07243 8.14848
      vertex 10.9734 -3.3 7.00417
    endloop
  endfacet
  facet normal -0.951057 1.10362e-16 0.309017
    outer loop
      vertex 13.15 -8.66025 10
      vertex 13.15 -3.3 10
      vertex 12.5484 -3.3 8.14848
    endloop
  endfacet
  facet normal -0.951057 8.87053e-17 0.309017
    outer loop
      vertex 13.15 -8.66025 10
      vertex 12.5484 -3.3 8.14848
      vertex 12.5484 -9.07243 8.14848
    endloop
  endfacet
  facet normal -1.15303e-16 -0.939904 0.34144
    outer loop
      vertex 13.15 -8.66025 10
      vertex 36.85 -8.66025 10
      vertex 13.3826 -7.43145 13.3826
    endloop
  endfacet
  facet normal -9.92524e-16 -0.939904 0.34144
    outer loop
      vertex 13.3826 -7.43145 13.3826
      vertex 12.1448 -7.88112 12.1448
      vertex 12.5484 -7.98765 11.8515
    endloop
  endfacet
  facet normal -1.38188e-16 -0.939904 0.34144
    outer loop
      vertex 36.85 -8.66025 10
      vertex 37.4516 -7.98765 11.8515
      vertex 13.3826 -7.43145 13.3826
    endloop
  endfacet
  facet normal 0 -0.939904 0.34144
    outer loop
      vertex 13.15 -8.66025 10
      vertex 13.3826 -7.43145 13.3826
      vertex 12.5484 -7.98765 11.8515
    endloop
  endfacet
  facet normal -6.15245e-17 -0.939904 0.34144
    outer loop
      vertex 37.4516 -7.98765 11.8515
      vertex 37.8552 -7.88112 12.1448
      vertex 13.3826 -7.43145 13.3826
    endloop
  endfacet
  facet normal -7.85153e-17 -0.939904 0.34144
    outer loop
      vertex 37.8552 -7.88112 12.1448
      vertex 36.6174 -7.43145 13.3826
      vertex 13.3826 -7.43145 13.3826
    endloop
  endfacet
  facet normal 0.951057 1.06446e-16 0.309017
    outer loop
      vertex 36.85 -8.66025 10
      vertex 37.4516 -9.07243 8.14848
      vertex 37.4516 -3.3 8.14848
    endloop
  endfacet
  facet normal 0.951057 1.02406e-16 0.309017
    outer loop
      vertex 36.85 -3.3 10
      vertex 36.85 -8.66025 10
      vertex 37.4516 -3.3 8.14848
    endloop
  endfacet
  facet normal 0.587785 3.57656e-16 0.809017
    outer loop
      vertex 39.0266 -9.32717 7.00417
      vertex 39.0266 -3.3 7.00417
      vertex 37.4516 -3.3 8.14848
    endloop
  endfacet
  facet normal 0.587785 2.4896e-16 0.809017
    outer loop
      vertex 37.4516 -9.07243 8.14848
      vertex 39.0266 -9.32717 7.00417
      vertex 37.4516 -3.3 8.14848
    endloop
  endfacet
  facet normal 0 4.42087e-16 1
    outer loop
      vertex 40.9734 -9.32717 7.00417
      vertex 40.9734 -3.3 7.00417
      vertex 39.0266 -3.3 7.00417
    endloop
  endfacet
  facet normal 0 4.42087e-16 1
    outer loop
      vertex 39.0266 -9.32717 7.00417
      vertex 40.9734 -9.32717 7.00417
      vertex 39.0266 -3.3 7.00417
    endloop
  endfacet
  facet normal -0.587785 2.44879e-16 0.809017
    outer loop
      vertex 42.1448 -9.13771 7.85522
      vertex 42.5484 -9.22757 8.14848
      vertex 42.5484 -3.3 8.14848
    endloop
  endfacet
  facet normal -0.587785 3.57656e-16 0.809017
    outer loop
      vertex 40.9734 -9.32717 7.00417
      vertex 42.1448 -9.13771 7.85522
      vertex 40.9734 -3.3 7.00417
    endloop
  endfacet
  facet normal -0.587785 4.99369e-16 0.809017
    outer loop
      vertex 40.9734 -3.3 7.00417
      vertex 42.1448 -9.13771 7.85522
      vertex 42.5484 -3.3 8.14848
    endloop
  endfacet
  facet normal -0.34144 -0.939904 0
    outer loop
      vertex 36.6174 -7.43145 36.6174
      vertex 36.6174 -7.43145 13.3826
      vertex 37.8552 -7.88112 12.1448
    endloop
  endfacet
  facet normal -0.34144 -0.939904 -1.68158e-16
    outer loop
      vertex 40 -8.66025 12.9958
      vertex 36.6174 -7.43145 36.6174
      vertex 39.0266 -8.30664 12.9958
    endloop
  endfacet
  facet normal -0.34144 -0.939904 8.03547e-17
    outer loop
      vertex 39.0266 -8.30664 12.9958
      vertex 36.6174 -7.43145 36.6174
      vertex 37.8552 -7.88112 12.1448
    endloop
  endfacet
  facet normal -0.34144 -0.939904 0
    outer loop
      vertex 40 -8.66025 37.0042
      vertex 36.6174 -7.43145 36.6174
      vertex 40 -8.66025 12.9958
    endloop
  endfacet
  facet normal -0.34144 -0.939904 9.65232e-15
    outer loop
      vertex 39.0266 -8.30664 37.0042
      vertex 36.6174 -7.43145 36.6174
      vertex 40 -8.66025 37.0042
    endloop
  endfacet
  facet normal -0.34144 -0.939904 -9.26088e-16
    outer loop
      vertex 37.8552 -7.88112 37.8552
      vertex 36.6174 -7.43145 36.6174
      vertex 39.0266 -8.30664 37.0042
    endloop
  endfacet
  facet normal 0 0 1
    outer loop
      vertex 40 -8.66025 37.0042
      vertex 40.9734 -8.87695 37.0042
      vertex 40.9734 -3.3 37.0042
    endloop
  endfacet
  facet normal 0 0 1
    outer loop
      vertex 39.0266 -8.30664 37.0042
      vertex 40 -8.66025 37.0042
      vertex 39.0266 -3.3 37.0042
    endloop
  endfacet
  facet normal 0 0 1
    outer loop
      vertex 39.0266 -3.3 37.0042
      vertex 40 -8.66025 37.0042
      vertex 40.9734 -3.3 37.0042
    endloop
  endfacet
  facet normal -0.587785 0 0.809017
    outer loop
      vertex 42.5484 -9.22757 38.1485
      vertex 42.5484 -3.3 38.1485
      vertex 40.9734 -3.3 37.0042
    endloop
  endfacet
  facet normal -0.587785 0 0.809017
    outer loop
      vertex 40.9734 -8.87695 37.0042
      vertex 42.5484 -9.22757 38.1485
      vertex 40.9734 -3.3 37.0042
    endloop
  endfacet
  facet normal -0.951057 3.62237e-16 0.309017
    outer loop
      vertex 43.15 -3.3 40
      vertex 42.5484 -3.3 38.1485
      vertex 43.15 -9.36149 40
    endloop
  endfacet
  facet normal -0.951057 0 0.309017
    outer loop
      vertex 43.15 -9.36149 40
      vertex 42.5484 -3.3 38.1485
      vertex 42.5484 -9.22757 38.1485
    endloop
  endfacet
  facet normal -0.951057 -3.62237e-16 -0.309017
    outer loop
      vertex 43.15 -3.3 40
      vertex 43.15 -9.36149 40
      vertex 42.5484 -3.3 41.8515
    endloop
  endfacet
  facet normal -0.951057 0 -0.309017
    outer loop
      vertex 42.5484 -3.3 41.8515
      vertex 43.15 -9.36149 40
      vertex 42.5484 -9.22757 41.8515
    endloop
  endfacet
  facet normal -0.951057 1.81119e-16 0.309017
    outer loop
      vertex 43.15 -3.3 10
      vertex 42.5484 -3.3 8.14848
      vertex 43.15 -9.36149 10
    endloop
  endfacet
  facet normal -0.951057 8.8371e-17 0.309017
    outer loop
      vertex 43.15 -9.36149 10
      vertex 42.5484 -3.3 8.14848
      vertex 42.5484 -9.22757 8.14848
    endloop
  endfacet
  facet normal -0.951057 -1.81119e-16 -0.309017
    outer loop
      vertex 43.15 -3.3 10
      vertex 43.15 -9.36149 10
      vertex 42.5484 -3.3 11.8515
    endloop
  endfacet
  facet normal -0.951057 -1.85211e-16 -0.309017
    outer loop
      vertex 42.5484 -3.3 11.8515
      vertex 43.15 -9.36149 10
      vertex 42.5484 -9.22757 11.8515
    endloop
  endfacet
  facet normal -0.587785 -4.84888e-16 -0.809017
    outer loop
      vertex 42.5484 -3.3 11.8515
      vertex 42.5484 -9.22757 11.8515
      vertex 40.9734 -3.3 12.9958
    endloop
  endfacet
  facet normal -0.587785 -5.15373e-16 -0.809017
    outer loop
      vertex 40.9734 -3.3 12.9958
      vertex 42.5484 -9.22757 11.8515
      vertex 40.9734 -8.87695 12.9958
    endloop
  endfacet
  facet normal 0 -6.37036e-16 -1
    outer loop
      vertex 40.9734 -3.3 12.9958
      vertex 40.9734 -8.87695 12.9958
      vertex 39.0266 -3.3 12.9958
    endloop
  endfacet
  facet normal -1.53762e-16 -6.90711e-16 -1
    outer loop
      vertex 39.0266 -3.3 12.9958
      vertex 40.9734 -8.87695 12.9958
      vertex 40 -8.66025 12.9958
    endloop
  endfacet
  facet normal -2.57777e-16 -7.096e-16 -1
    outer loop
      vertex 39.0266 -3.3 12.9958
      vertex 40 -8.66025 12.9958
      vertex 39.0266 -8.30664 12.9958
    endloop
  endfacet
  facet normal -0.587785 -6.13145e-16 -0.809017
    outer loop
      vertex 12.5484 -3.3 11.8515
      vertex 12.5484 -7.98765 11.8515
      vertex 10.9734 -3.3 12.9958
    endloop
  endfacet
  facet normal -0.587785 7.15403e-17 -0.809017
    outer loop
      vertex 10.9734 -3.3 12.9958
      vertex 12.5484 -7.98765 11.8515
      vertex 12.1448 -7.88112 12.1448
    endloop
  endfacet
  facet normal -0.587785 -5.74078e-16 -0.809017
    outer loop
      vertex 10.9734 -3.3 12.9958
      vertex 12.1448 -7.88112 12.1448
      vertex 10.9734 -8.30664 12.9958
    endloop
  endfacet
  facet normal -0.951057 -2.04813e-16 -0.309017
    outer loop
      vertex 13.15 -3.3 10
      vertex 13.15 -8.66025 10
      vertex 12.5484 -3.3 11.8515
    endloop
  endfacet
  facet normal -0.951057 -2.342e-16 -0.309017
    outer loop
      vertex 12.5484 -3.3 11.8515
      vertex 13.15 -8.66025 10
      vertex 12.5484 -7.98765 11.8515
    endloop
  endfacet
  facet normal -0.587785 0 0.809017
    outer loop
      vertex 12.1448 -7.88112 37.8552
      vertex 12.5484 -7.98765 38.1485
      vertex 12.5484 -3.3 38.1485
    endloop
  endfacet
  facet normal -0.587785 0 0.809017
    outer loop
      vertex 10.9734 -8.30664 37.0042
      vertex 12.1448 -7.88112 37.8552
      vertex 10.9734 -3.3 37.0042
    endloop
  endfacet
  facet normal -0.587785 7.18442e-16 0.809017
    outer loop
      vertex 10.9734 -3.3 37.0042
      vertex 12.1448 -7.88112 37.8552
      vertex 12.5484 -3.3 38.1485
    endloop
  endfacet
  facet normal -0.838505 -0.544894 -0
    outer loop
      vertex 30.437 -2.07912 19.563
      vertex 31.7291 -4.06737 18.2709
      vertex 30.437 -2.07912 30.437
    endloop
  endfacet
  facet normal -0.838505 -0.544894 0
    outer loop
      vertex 30.437 -2.07912 30.437
      vertex 31.7291 -4.06737 18.2709
      vertex 31.7291 -4.06737 31.7291
    endloop
  endfacet
  facet normal 0 -0.544894 0.838505
    outer loop
      vertex 19.563 -2.07912 19.563
      vertex 18.2709 -4.06737 18.2709
      vertex 31.7291 -4.06737 18.2709
    endloop
  endfacet
  facet normal 0 -0.544894 0.838505
    outer loop
      vertex 30.437 -2.07912 19.563
      vertex 19.563 -2.07912 19.563
      vertex 31.7291 -4.06737 18.2709
    endloop
  endfacet
  facet normal 0.838505 -0.544894 0
    outer loop
      vertex 18.2709 -4.06737 31.7291
      vertex 18.2709 -4.06737 18.2709
      vertex 19.563 -2.07912 19.563
    endloop
  endfacet
  facet normal 0.838505 -0.544894 0
    outer loop
      vertex 19.563 -2.07912 30.437
      vertex 18.2709 -4.06737 31.7291
      vertex 19.563 -2.07912 19.563
    endloop
  endfacet
  facet normal -0 -0.544894 -0.838505
    outer loop
      vertex 18.2709 -4.06737 31.7291
      vertex 19.563 -2.07912 30.437
      vertex 31.7291 -4.06737 31.7291
    endloop
  endfacet
  facet normal 0 -0.544894 -0.838505
    outer loop
      vertex 31.7291 -4.06737 31.7291
      vertex 19.563 -2.07912 30.437
      vertex 30.437 -2.07912 30.437
    endloop
  endfacet
  facet normal 0.951057 -2.33911e-16 -0.309017
    outer loop
      vertex 36.85 -3.3 10
      vertex 37.4516 -3.3 11.8515
      vertex 37.4516 -7.98765 11.8515
    endloop
  endfacet
  facet normal 0.951057 -2.04813e-16 -0.309017
    outer loop
      vertex 36.85 -8.66025 10
      vertex 36.85 -3.3 10
      vertex 37.4516 -7.98765 11.8515
    endloop
  endfacet
  facet normal 0.587785 -5.74078e-16 -0.809017
    outer loop
      vertex 39.0266 -3.3 12.9958
      vertex 39.0266 -8.30664 12.9958
      vertex 37.4516 -3.3 11.8515
    endloop
  endfacet
  facet normal 0.587785 -3.92799e-16 -0.809017
    outer loop
      vertex 37.4516 -3.3 11.8515
      vertex 39.0266 -8.30664 12.9958
      vertex 37.8552 -7.88112 12.1448
    endloop
  endfacet
  facet normal 0.587785 -6.13145e-16 -0.809017
    outer loop
      vertex 37.4516 -3.3 11.8515
      vertex 37.8552 -7.88112 12.1448
      vertex 37.4516 -7.98765 11.8515
    endloop
  endfacet
  facet normal 0.587785 0 0.809017
    outer loop
      vertex 37.8552 -7.88112 37.8552
      vertex 39.0266 -8.30664 37.0042
      vertex 39.0266 -3.3 37.0042
    endloop
  endfacet
  facet normal 0.587785 0 0.809017
    outer loop
      vertex 37.4516 -7.98765 38.1485
      vertex 37.8552 -7.88112 37.8552
      vertex 37.4516 -3.3 38.1485
    endloop
  endfacet
  facet normal 0.587785 4.1637e-16 0.809017
    outer loop
      vertex 37.4516 -3.3 38.1485
      vertex 37.8552 -7.88112 37.8552
      vertex 39.0266 -3.3 37.0042
    endloop
  endfacet
  facet normal -0.485476 -0.87425 0
    outer loop
      vertex 33.8197 -5.87785 33.8197
      vertex 33.8197 -5.87785 16.1803
      vertex 36.6174 -7.43145 13.3826
    endloop
  endfacet
  facet normal -0.485476 -0.87425 0
    outer loop
      vertex 36.6174 -7.43145 36.6174
      vertex 33.8197 -5.87785 33.8197
      vertex 36.6174 -7.43145 13.3826
    endloop
  endfacet
  facet normal 1.48464e-16 -0.87425 -0.485476
    outer loop
      vertex 36.6174 -7.43145 36.6174
      vertex 13.3826 -7.43145 36.6174
      vertex 16.1803 -5.87785 33.8197
    endloop
  endfacet
  facet normal 0 -0.87425 -0.485476
    outer loop
      vertex 33.8197 -5.87785 33.8197
      vertex 36.6174 -7.43145 36.6174
      vertex 16.1803 -5.87785 33.8197
    endloop
  endfacet
  facet normal 0.485476 -0.87425 0
    outer loop
      vertex 13.3826 -7.43145 36.6174
      vertex 13.3826 -7.43145 13.3826
      vertex 16.1803 -5.87785 16.1803
    endloop
  endfacet
  facet normal 0.485476 -0.87425 0
    outer loop
      vertex 16.1803 -5.87785 33.8197
      vertex 13.3826 -7.43145 36.6174
      vertex 16.1803 -5.87785 16.1803
    endloop
  endfacet
  facet normal -1.26678e-16 -0.87425 0.485476
    outer loop
      vertex 16.1803 -5.87785 16.1803
      vertex 13.3826 -7.43145 13.3826
      vertex 36.6174 -7.43145 13.3826
    endloop
  endfacet
  facet normal -9.77792e-17 -0.87425 0.485476
    outer loop
      vertex 33.8197 -5.87785 16.1803
      vertex 16.1803 -5.87785 16.1803
      vertex 36.6174 -7.43145 13.3826
    endloop
  endfacet
  facet normal -0.654654 -0.755929 0
    outer loop
      vertex 31.7291 -4.06737 31.7291
      vertex 31.7291 -4.06737 18.2709
      vertex 33.8197 -5.87785 16.1803
    endloop
  endfacet
  facet normal -0.654654 -0.755929 0
    outer loop
      vertex 33.8197 -5.87785 33.8197
      vertex 31.7291 -4.06737 31.7291
      vertex 33.8197 -5.87785 16.1803
    endloop
  endfacet
  facet normal 0 -0.755929 -0.654654
    outer loop
      vertex 33.8197 -5.87785 33.8197
      vertex 16.1803 -5.87785 33.8197
      vertex 18.2709 -4.06737 31.7291
    endloop
  endfacet
  facet normal 0 -0.755929 -0.654654
    outer loop
      vertex 31.7291 -4.06737 31.7291
      vertex 33.8197 -5.87785 33.8197
      vertex 18.2709 -4.06737 31.7291
    endloop
  endfacet
  facet normal -1.37555e-16 -0.755929 0.654654
    outer loop
      vertex 18.2709 -4.06737 18.2709
      vertex 16.1803 -5.87785 16.1803
      vertex 33.8197 -5.87785 16.1803
    endloop
  endfacet
  facet normal 0 -0.755929 0.654654
    outer loop
      vertex 31.7291 -4.06737 18.2709
      vertex 18.2709 -4.06737 18.2709
      vertex 33.8197 -5.87785 16.1803
    endloop
  endfacet
  facet normal 0.654654 -0.755929 0
    outer loop
      vertex 16.1803 -5.87785 33.8197
      vertex 16.1803 -5.87785 16.1803
      vertex 18.2709 -4.06737 18.2709
    endloop
  endfacet
  facet normal 0.654654 -0.755929 0
    outer loop
      vertex 18.2709 -4.06737 31.7291
      vertex 16.1803 -5.87785 33.8197
      vertex 18.2709 -4.06737 18.2709
    endloop
  endfacet
endsolid OpenSCAD_Model
