  0
SECTION
  2
HEADER
  9
$ACADVER
  1
AC1014
  9
$HANDSEED
  5
FFFF
  9
$MEASUREMENT
 70
     1
  0
ENDSEC
  0
SECTION
  2
TABLES
  0
TABLE
  2
VPORT
  5
8
330
0
100
AcDbSymbolTable
 70
     4
  0
VPORT
  5
2E
330
8
100
AcDbSymbolTableRecord
100
AcDbViewportTableRecord
  2
*ACTIVE
 70
     0
 10
0.0
 20
0.0
 11
1.0
 21
1.0
 12
210.0
 22
148.5
 13
0.0
 23
0.0
 14
10.0
 24
10.0
 15
10.0
 25
10.0
 16
0.0
 26
0.0
 36
1.0
 17
0.0
 27
0.0
 37
0.0
 40
341.0
 41
1.24
 42
50.0
 43
0.0
 44
0.0
 50
0.0
 51
0.0
 71
     0
 72
   100
 73
     1
 74
     3
 75
     0
 76
     0
 77
     0
 78
     0
  0
ENDTAB
  0
TABLE
  2
LTYPE
  5
5
330
0
100
AcDbSymbolTable
 70
     1
  0
LTYPE
  5
14
330
5
100
AcDbSymbolTableRecord
100
AcDbLinetypeTableRecord
  2
BYBLOCK
 70
     0
  3

 72
    65
 73
     0
 40
0.0
  0
LTYPE
  5
15
330
5
100
AcDbSymbolTableRecord
100
AcDbLinetypeTableRecord
  2
BYLAYER
 70
     0
  3

 72
    65
 73
     0
 40
0.0
  0
LTYPE
  5
16
330
5
100
AcDbSymbolTableRecord
100
AcDbLinetypeTableRecord
  2
CONTINUOUS
 70
     0
  3
Solid line
 72
    65
 73
     0
 40
0.0
  0
ENDTAB
  0
TABLE
  2
LAYER
  5
2
100
AcDbSymbolTable
 70
2
  0
LAYER
  5
50
100
AcDbSymbolTableRecord
100
AcDbLayerTableRecord
  2
0
 70
0
  6
CONTINUOUS
  0
LAYER
  5
51
100
AcDbSymbolTableRecord
100
AcDbLayerTableRecord
  2
Ebene_1
 70
0
  6
CONTINUOUS
  0
ENDTAB
  0
TABLE
  2
STYLE
  5
3
330
0
100
AcDbSymbolTable
 70
     1
  0
STYLE
  5
11
330
3
100
AcDbSymbolTableRecord
100
AcDbTextStyleTableRecord
  2
STANDARD
 70
     0
 40
0.0
 41
1.0
 50
0.0
 71
     0
 42
2.5
  3
txt
  4

  0
ENDTAB
  0
TABLE
  2
VIEW
  5
6
330
0
100
AcDbSymbolTable
 70
     0
  0
ENDTAB
  0
TABLE
  2
UCS
  5
7
330
0
100
AcDbSymbolTable
 70
     0
  0
ENDTAB
  0
TABLE
  2
APPID
  5
9
330
0
100
AcDbSymbolTable
 70
     2
  0
APPID
  5
12
330
9
100
AcDbSymbolTableRecord
100
AcDbRegAppTableRecord
  2
ACAD
 70
     0
  0
ENDTAB
  0
TABLE
  2
DIMSTYLE
  5
A
330
0
100
AcDbSymbolTable
 70
     1
  0
DIMSTYLE
105
27
330
A
100
AcDbSymbolTableRecord
100
AcDbDimStyleTableRecord
  2
ISO-25
 70
     0
  3

  4

  5

  6

  7

 40
1.0
 41
2.5
 42
0.625
 43
3.75
 44
1.25
 45
0.0
 46
0.0
 47
0.0
 48
0.0
140
2.5
141
2.5
142
0.0
143
0.03937007874016
144
1.0
145
0.0
146
1.0
147
0.625
 71
     0
 72
     0
 73
     0
 74
     0
 75
     0
 76
     0
 77
     1
 78
     8
170
     0
171
     3
172
     1
173
     0
174
     0
175
     0
176
     0
177
     0
178
     0
270
     2
271
     2
272
     2
273
     2
274
     3
340
11
275
     0
280
     0
281
     0
282
     0
283
     0
284
     8
285
     0
286
     0
287
     3
288
     0
  0
ENDTAB
  0
TABLE
  2
BLOCK_RECORD
  5
1
330
0
100
AcDbSymbolTable
 70
     1
  0
BLOCK_RECORD
  5
1F
330
1
100
AcDbSymbolTableRecord
100
AcDbBlockTableRecord
  2
*MODEL_SPACE
  0
BLOCK_RECORD
  5
1B
330
1
100
AcDbSymbolTableRecord
100
AcDbBlockTableRecord
  2
*PAPER_SPACE
  0
ENDTAB
  0
ENDSEC
  0
SECTION
  2
BLOCKS
  0
BLOCK
  5
20
330
1F
100
AcDbEntity
  8
0
100
AcDbBlockBegin
  2
*MODEL_SPACE
 70
     0
 10
0.0
 20
0.0
 30
0.0
  3
*MODEL_SPACE
  1

  0
ENDBLK
  5
21
330
1F
100
AcDbEntity
  8
0
100
AcDbBlockEnd
  0
BLOCK
  5
1C
330
1B
100
AcDbEntity
 67
     1
  8
0
100
AcDbBlockBegin
  2
*PAPER_SPACE
  1

  0
ENDBLK
  5
1D
330
1B
100
AcDbEntity
 67
     1
  8
0
100
AcDbBlockEnd
  0
ENDSEC
  0
SECTION
  2
ENTITIES
  0
LINE
  5
100
100
AcDbEntity
  8
Ebene_1
 62
7
100
AcDbLine
 10
-0.559986
 20
12.563349
 30
0.0
 11
-1.406652
 21
10.693627
 31
0.0
  0
LINE
  5
101
100
AcDbEntity
  8
Ebene_1
 62
7
100
AcDbLine
 10
-1.406652
 20
10.693627
 30
0.0
 11
-1.477208
 21
10.023349
 31
0.0
  0
LINE
  5
102
100
AcDbEntity
  8
Ebene_1
 62
7
100
AcDbLine
 10
-1.477208
 20
10.023349
 30
0.0
 11
-1.309652
 21
8.894460
 31
0.0
  0
LINE
  5
103
100
AcDbEntity
  8
Ebene_1
 62
7
100
AcDbLine
 10
-1.309652
 20
8.894460
 30
0.0
 11
-3.320486
 21
8.356460
 31
0.0
  0
LINE
  5
104
100
AcDbEntity
  8
Ebene_1
 62
7
100
AcDbLine
 10
-3.320486
 20
8.356460
 30
0.0
 11
-3.743819
 21
9.414794
 31
0.0
  0
LINE
  5
105
100
AcDbEntity
  8
Ebene_1
 62
7
100
AcDbLine
 10
-3.743819
 20
9.414794
 30
0.0
 11
-4.131874
 21
9.961599
 31
0.0
  0
LINE
  5
106
100
AcDbEntity
  8
Ebene_1
 62
7
100
AcDbLine
 10
-4.131874
 20
9.961599
 30
0.0
 11
-5.798735
 21
11.161044
 31
0.0
  0
LINE
  5
107
100
AcDbEntity
  8
Ebene_1
 62
7
100
AcDbLine
 10
-5.798735
 20
11.161044
 30
0.0
 11
-6.768874
 21
10.605433
 31
0.0
  0
LINE
  5
108
100
AcDbEntity
  8
Ebene_1
 62
7
100
AcDbLine
 10
-6.768874
 20
10.605433
 30
0.0
 11
-6.566041
 21
8.550488
 31
0.0
  0
LINE
  5
109
100
AcDbEntity
  8
Ebene_1
 62
7
100
AcDbLine
 10
-6.566041
 20
8.550488
 30
0.0
 11
-6.292624
 21
7.941960
 31
0.0
  0
LINE
  5
10a
100
AcDbEntity
  8
Ebene_1
 62
7
100
AcDbLine
 10
-6.292624
 20
7.941960
 30
0.0
 11
-5.578263
 21
7.051182
 31
0.0
  0
LINE
  5
10b
100
AcDbEntity
  8
Ebene_1
 62
7
100
AcDbLine
 10
-5.578263
 20
7.051182
 30
0.0
 11
-7.051096
 21
5.578349
 31
0.0
  0
LINE
  5
10c
100
AcDbEntity
  8
Ebene_1
 62
7
100
AcDbLine
 10
-7.051096
 20
5.578349
 30
0.0
 11
-7.950680
 21
6.292710
 31
0.0
  0
LINE
  5
10d
100
AcDbEntity
  8
Ebene_1
 62
7
100
AcDbLine
 10
-7.950680
 20
6.292710
 30
0.0
 11
-8.559236
 21
6.566127
 31
0.0
  0
LINE
  5
10e
100
AcDbEntity
  8
Ebene_1
 62
7
100
AcDbLine
 10
-8.559236
 20
6.566127
 30
0.0
 11
-10.605347
 21
6.768960
 31
0.0
  0
LINE
  5
10f
100
AcDbEntity
  8
Ebene_1
 62
7
100
AcDbLine
 10
-10.605347
 20
6.768960
 30
0.0
 11
-11.160958
 21
5.798821
 31
0.0
  0
LINE
  5
110
100
AcDbEntity
  8
Ebene_1
 62
7
100
AcDbLine
 10
-11.160958
 20
5.798821
 30
0.0
 11
-9.961513
 21
4.131960
 31
0.0
  0
LINE
  5
111
100
AcDbEntity
  8
Ebene_1
 62
7
100
AcDbLine
 10
-9.961513
 20
4.131960
 30
0.0
 11
-9.414708
 21
3.735071
 31
0.0
  0
LINE
  5
112
100
AcDbEntity
  8
Ebene_1
 62
7
100
AcDbLine
 10
-9.414708
 20
3.735071
 30
0.0
 11
-8.356374
 21
3.320572
 31
0.0
  0
LINE
  5
113
100
AcDbEntity
  8
Ebene_1
 62
7
100
AcDbLine
 10
-8.356374
 20
3.320572
 30
0.0
 11
-8.894374
 21
1.309738
 31
0.0
  0
LINE
  5
114
100
AcDbEntity
  8
Ebene_1
 62
7
100
AcDbLine
 10
-8.894374
 20
1.309738
 30
0.0
 11
-10.023263
 21
1.477294
 31
0.0
  0
LINE
  5
115
100
AcDbEntity
  8
Ebene_1
 62
7
100
AcDbLine
 10
-10.023263
 20
1.477294
 30
0.0
 11
-10.693541
 21
1.406738
 31
0.0
  0
LINE
  5
116
100
AcDbEntity
  8
Ebene_1
 62
7
100
AcDbLine
 10
-10.693541
 20
1.406738
 30
0.0
 11
-12.563263
 21
0.560071
 31
0.0
  0
LINE
  5
117
100
AcDbEntity
  8
Ebene_1
 62
7
100
AcDbLine
 10
-12.563263
 20
0.560071
 30
0.0
 11
-12.563263
 21
-0.551179
 31
0.0
  0
LINE
  5
118
100
AcDbEntity
  8
Ebene_1
 62
7
100
AcDbLine
 10
-12.563263
 20
-0.551179
 30
0.0
 11
-10.693541
 21
-1.406651
 31
0.0
  0
LINE
  5
119
100
AcDbEntity
  8
Ebene_1
 62
7
100
AcDbLine
 10
-10.693541
 20
-1.406651
 30
0.0
 11
-10.023263
 21
-1.468401
 31
0.0
  0
LINE
  5
11a
100
AcDbEntity
  8
Ebene_1
 62
7
100
AcDbLine
 10
-10.023263
 20
-1.468401
 30
0.0
 11
-8.894374
 21
-1.300817
 31
0.0
  0
LINE
  5
11b
100
AcDbEntity
  8
Ebene_1
 62
7
100
AcDbLine
 10
-8.894374
 20
-1.300817
 30
0.0
 11
-8.356374
 21
-3.311651
 31
0.0
  0
LINE
  5
11c
100
AcDbEntity
  8
Ebene_1
 62
7
100
AcDbLine
 10
-8.356374
 20
-3.311651
 30
0.0
 11
-9.414708
 21
-3.734984
 31
0.0
  0
LINE
  5
11d
100
AcDbEntity
  8
Ebene_1
 62
7
100
AcDbLine
 10
-9.414708
 20
-3.734984
 30
0.0
 11
-9.961513
 21
-4.123040
 31
0.0
  0
LINE
  5
11e
100
AcDbEntity
  8
Ebene_1
 62
7
100
AcDbLine
 10
-9.961513
 20
-4.123040
 30
0.0
 11
-11.160958
 21
-5.798734
 31
0.0
  0
LINE
  5
11f
100
AcDbEntity
  8
Ebene_1
 62
7
100
AcDbLine
 10
-11.160958
 20
-5.798734
 30
0.0
 11
-10.605347
 21
-6.760068
 31
0.0
  0
LINE
  5
120
100
AcDbEntity
  8
Ebene_1
 62
7
100
AcDbLine
 10
-10.605347
 20
-6.760068
 30
0.0
 11
-8.559236
 21
-6.557206
 31
0.0
  0
LINE
  5
121
100
AcDbEntity
  8
Ebene_1
 62
7
100
AcDbLine
 10
-8.559236
 20
-6.557206
 30
0.0
 11
-7.950680
 21
-6.283818
 31
0.0
  0
LINE
  5
122
100
AcDbEntity
  8
Ebene_1
 62
7
100
AcDbLine
 10
-7.950680
 20
-6.283818
 30
0.0
 11
-7.051096
 21
-5.569428
 31
0.0
  0
LINE
  5
123
100
AcDbEntity
  8
Ebene_1
 62
7
100
AcDbLine
 10
-7.051096
 20
-5.569428
 30
0.0
 11
-5.578263
 21
-7.042290
 31
0.0
  0
LINE
  5
124
100
AcDbEntity
  8
Ebene_1
 62
7
100
AcDbLine
 10
-5.578263
 20
-7.042290
 30
0.0
 11
-6.292624
 21
-7.941873
 31
0.0
  0
LINE
  5
125
100
AcDbEntity
  8
Ebene_1
 62
7
100
AcDbLine
 10
-6.292624
 20
-7.941873
 30
0.0
 11
-6.566041
 21
-8.550401
 31
0.0
  0
LINE
  5
126
100
AcDbEntity
  8
Ebene_1
 62
7
100
AcDbLine
 10
-6.566041
 20
-8.550401
 30
0.0
 11
-6.768874
 21
-10.596512
 31
0.0
  0
LINE
  5
127
100
AcDbEntity
  8
Ebene_1
 62
7
100
AcDbLine
 10
-6.768874
 20
-10.596512
 30
0.0
 11
-5.798735
 21
-11.160956
 31
0.0
  0
LINE
  5
128
100
AcDbEntity
  8
Ebene_1
 62
7
100
AcDbLine
 10
-5.798735
 20
-11.160956
 30
0.0
 11
-4.131874
 21
-9.961512
 31
0.0
  0
LINE
  5
129
100
AcDbEntity
  8
Ebene_1
 62
7
100
AcDbLine
 10
-4.131874
 20
-9.961512
 30
0.0
 11
-3.743819
 21
-9.414706
 31
0.0
  0
LINE
  5
12a
100
AcDbEntity
  8
Ebene_1
 62
7
100
AcDbLine
 10
-3.743819
 20
-9.414706
 30
0.0
 11
-3.320486
 21
-8.347568
 31
0.0
  0
LINE
  5
12b
100
AcDbEntity
  8
Ebene_1
 62
7
100
AcDbLine
 10
-3.320486
 20
-8.347568
 30
0.0
 11
-1.309652
 21
-8.885540
 31
0.0
  0
LINE
  5
12c
100
AcDbEntity
  8
Ebene_1
 62
7
100
AcDbLine
 10
-1.309652
 20
-8.885540
 30
0.0
 11
-1.477208
 21
-10.023262
 31
0.0
  0
LINE
  5
12d
100
AcDbEntity
  8
Ebene_1
 62
7
100
AcDbLine
 10
-1.477208
 20
-10.023262
 30
0.0
 11
-1.406652
 21
-10.684706
 31
0.0
  0
LINE
  5
12e
100
AcDbEntity
  8
Ebene_1
 62
7
100
AcDbLine
 10
-1.406652
 20
-10.684706
 30
0.0
 11
-0.559986
 21
-12.563262
 31
0.0
  0
LINE
  5
12f
100
AcDbEntity
  8
Ebene_1
 62
7
100
AcDbLine
 10
-0.559986
 20
-12.563262
 30
0.0
 11
0.551264
 21
-12.563262
 31
0.0
  0
LINE
  5
130
100
AcDbEntity
  8
Ebene_1
 62
7
100
AcDbLine
 10
0.551264
 20
-12.563262
 30
0.0
 11
1.406736
 21
-10.684706
 31
0.0
  0
LINE
  5
131
100
AcDbEntity
  8
Ebene_1
 62
7
100
AcDbLine
 10
1.406736
 20
-10.684706
 30
0.0
 11
1.468486
 21
-10.023262
 31
0.0
  0
LINE
  5
132
100
AcDbEntity
  8
Ebene_1
 62
7
100
AcDbLine
 10
1.468486
 20
-10.023262
 30
0.0
 11
1.300902
 21
-8.885540
 31
0.0
  0
LINE
  5
133
100
AcDbEntity
  8
Ebene_1
 62
7
100
AcDbLine
 10
1.300902
 20
-8.885540
 30
0.0
 11
3.311736
 21
-8.347568
 31
0.0
  0
LINE
  5
134
100
AcDbEntity
  8
Ebene_1
 62
7
100
AcDbLine
 10
3.311736
 20
-8.347568
 30
0.0
 11
3.735069
 21
-9.414706
 31
0.0
  0
LINE
  5
135
100
AcDbEntity
  8
Ebene_1
 62
7
100
AcDbLine
 10
3.735069
 20
-9.414706
 30
0.0
 11
4.123125
 21
-9.961512
 31
0.0
  0
LINE
  5
136
100
AcDbEntity
  8
Ebene_1
 62
7
100
AcDbLine
 10
4.123125
 20
-9.961512
 30
0.0
 11
5.798819
 21
-11.160956
 31
0.0
  0
LINE
  5
137
100
AcDbEntity
  8
Ebene_1
 62
7
100
AcDbLine
 10
5.798819
 20
-11.160956
 30
0.0
 11
6.760153
 21
-10.596512
 31
0.0
  0
LINE
  5
138
100
AcDbEntity
  8
Ebene_1
 62
7
100
AcDbLine
 10
6.760153
 20
-10.596512
 30
0.0
 11
6.557291
 21
-8.550401
 31
0.0
  0
LINE
  5
139
100
AcDbEntity
  8
Ebene_1
 62
7
100
AcDbLine
 10
6.557291
 20
-8.550401
 30
0.0
 11
6.283903
 21
-7.941873
 31
0.0
  0
LINE
  5
13a
100
AcDbEntity
  8
Ebene_1
 62
7
100
AcDbLine
 10
6.283903
 20
-7.941873
 30
0.0
 11
5.569514
 21
-7.042290
 31
0.0
  0
LINE
  5
13b
100
AcDbEntity
  8
Ebene_1
 62
7
100
AcDbLine
 10
5.569514
 20
-7.042290
 30
0.0
 11
7.042375
 21
-5.569428
 31
0.0
  0
LINE
  5
13c
100
AcDbEntity
  8
Ebene_1
 62
7
100
AcDbLine
 10
7.042375
 20
-5.569428
 30
0.0
 11
7.941958
 21
-6.283818
 31
0.0
  0
LINE
  5
13d
100
AcDbEntity
  8
Ebene_1
 62
7
100
AcDbLine
 10
7.941958
 20
-6.283818
 30
0.0
 11
8.550486
 21
-6.557206
 31
0.0
  0
LINE
  5
13e
100
AcDbEntity
  8
Ebene_1
 62
7
100
AcDbLine
 10
8.550486
 20
-6.557206
 30
0.0
 11
10.596597
 21
-6.760068
 31
0.0
  0
LINE
  5
13f
100
AcDbEntity
  8
Ebene_1
 62
7
100
AcDbLine
 10
10.596597
 20
-6.760068
 30
0.0
 11
11.161041
 21
-5.798734
 31
0.0
  0
LINE
  5
140
100
AcDbEntity
  8
Ebene_1
 62
7
100
AcDbLine
 10
11.161041
 20
-5.798734
 30
0.0
 11
9.952792
 21
-4.123040
 31
0.0
  0
LINE
  5
141
100
AcDbEntity
  8
Ebene_1
 62
7
100
AcDbLine
 10
9.952792
 20
-4.123040
 30
0.0
 11
9.414791
 21
-3.734984
 31
0.0
  0
LINE
  5
142
100
AcDbEntity
  8
Ebene_1
 62
7
100
AcDbLine
 10
9.414791
 20
-3.734984
 30
0.0
 11
8.347653
 21
-3.311651
 31
0.0
  0
LINE
  5
143
100
AcDbEntity
  8
Ebene_1
 62
7
100
AcDbLine
 10
8.347653
 20
-3.311651
 30
0.0
 11
8.885625
 21
-1.300817
 31
0.0
  0
LINE
  5
144
100
AcDbEntity
  8
Ebene_1
 62
7
100
AcDbLine
 10
8.885625
 20
-1.300817
 30
0.0
 11
10.023347
 21
-1.468401
 31
0.0
  0
LINE
  5
145
100
AcDbEntity
  8
Ebene_1
 62
7
100
AcDbLine
 10
10.023347
 20
-1.468401
 30
0.0
 11
10.684791
 21
-1.406651
 31
0.0
  0
LINE
  5
146
100
AcDbEntity
  8
Ebene_1
 62
7
100
AcDbLine
 10
10.684791
 20
-1.406651
 30
0.0
 11
12.563347
 21
-0.551179
 31
0.0
  0
LINE
  5
147
100
AcDbEntity
  8
Ebene_1
 62
7
100
AcDbLine
 10
12.563347
 20
-0.551179
 30
0.0
 11
12.563347
 21
0.560071
 31
0.0
  0
LINE
  5
148
100
AcDbEntity
  8
Ebene_1
 62
7
100
AcDbLine
 10
12.563347
 20
0.560071
 30
0.0
 11
10.684791
 21
1.406738
 31
0.0
  0
LINE
  5
149
100
AcDbEntity
  8
Ebene_1
 62
7
100
AcDbLine
 10
10.684791
 20
1.406738
 30
0.0
 11
10.023347
 21
1.477294
 31
0.0
  0
LINE
  5
14a
100
AcDbEntity
  8
Ebene_1
 62
7
100
AcDbLine
 10
10.023347
 20
1.477294
 30
0.0
 11
8.885625
 21
1.309738
 31
0.0
  0
LINE
  5
14b
100
AcDbEntity
  8
Ebene_1
 62
7
100
AcDbLine
 10
8.885625
 20
1.309738
 30
0.0
 11
8.347653
 21
3.320572
 31
0.0
  0
LINE
  5
14c
100
AcDbEntity
  8
Ebene_1
 62
7
100
AcDbLine
 10
8.347653
 20
3.320572
 30
0.0
 11
9.414791
 21
3.735071
 31
0.0
  0
LINE
  5
14d
100
AcDbEntity
  8
Ebene_1
 62
7
100
AcDbLine
 10
9.414791
 20
3.735071
 30
0.0
 11
9.952792
 21
4.131960
 31
0.0
  0
LINE
  5
14e
100
AcDbEntity
  8
Ebene_1
 62
7
100
AcDbLine
 10
9.952792
 20
4.131960
 30
0.0
 11
11.161041
 21
5.798821
 31
0.0
  0
LINE
  5
14f
100
AcDbEntity
  8
Ebene_1
 62
7
100
AcDbLine
 10
11.161041
 20
5.798821
 30
0.0
 11
10.596597
 21
6.768960
 31
0.0
  0
LINE
  5
150
100
AcDbEntity
  8
Ebene_1
 62
7
100
AcDbLine
 10
10.596597
 20
6.768960
 30
0.0
 11
8.550486
 21
6.566127
 31
0.0
  0
LINE
  5
151
100
AcDbEntity
  8
Ebene_1
 62
7
100
AcDbLine
 10
8.550486
 20
6.566127
 30
0.0
 11
7.941958
 21
6.292710
 31
0.0
  0
LINE
  5
152
100
AcDbEntity
  8
Ebene_1
 62
7
100
AcDbLine
 10
7.941958
 20
6.292710
 30
0.0
 11
7.042375
 21
5.578349
 31
0.0
  0
LINE
  5
153
100
AcDbEntity
  8
Ebene_1
 62
7
100
AcDbLine
 10
7.042375
 20
5.578349
 30
0.0
 11
5.569514
 21
7.051182
 31
0.0
  0
LINE
  5
154
100
AcDbEntity
  8
Ebene_1
 62
7
100
AcDbLine
 10
5.569514
 20
7.051182
 30
0.0
 11
6.283903
 21
7.941960
 31
0.0
  0
LINE
  5
155
100
AcDbEntity
  8
Ebene_1
 62
7
100
AcDbLine
 10
6.283903
 20
7.941960
 30
0.0
 11
6.557291
 21
8.550488
 31
0.0
  0
LINE
  5
156
100
AcDbEntity
  8
Ebene_1
 62
7
100
AcDbLine
 10
6.557291
 20
8.550488
 30
0.0
 11
6.760153
 21
10.605433
 31
0.0
  0
LINE
  5
157
100
AcDbEntity
  8
Ebene_1
 62
7
100
AcDbLine
 10
6.760153
 20
10.605433
 30
0.0
 11
5.798819
 21
11.161044
 31
0.0
  0
LINE
  5
158
100
AcDbEntity
  8
Ebene_1
 62
7
100
AcDbLine
 10
5.798819
 20
11.161044
 30
0.0
 11
4.123125
 21
9.961599
 31
0.0
  0
LINE
  5
159
100
AcDbEntity
  8
Ebene_1
 62
7
100
AcDbLine
 10
4.123125
 20
9.961599
 30
0.0
 11
3.735069
 21
9.414794
 31
0.0
  0
LINE
  5
15a
100
AcDbEntity
  8
Ebene_1
 62
7
100
AcDbLine
 10
3.735069
 20
9.414794
 30
0.0
 11
3.311736
 21
8.356460
 31
0.0
  0
LINE
  5
15b
100
AcDbEntity
  8
Ebene_1
 62
7
100
AcDbLine
 10
3.311736
 20
8.356460
 30
0.0
 11
1.300902
 21
8.894460
 31
0.0
  0
LINE
  5
15c
100
AcDbEntity
  8
Ebene_1
 62
7
100
AcDbLine
 10
1.300902
 20
8.894460
 30
0.0
 11
1.468486
 21
10.023349
 31
0.0
  0
LINE
  5
15d
100
AcDbEntity
  8
Ebene_1
 62
7
100
AcDbLine
 10
1.468486
 20
10.023349
 30
0.0
 11
1.406736
 21
10.693627
 31
0.0
  0
LINE
  5
15e
100
AcDbEntity
  8
Ebene_1
 62
7
100
AcDbLine
 10
1.406736
 20
10.693627
 30
0.0
 11
0.551264
 21
12.563349
 31
0.0
  0
LINE
  5
15f
100
AcDbEntity
  8
Ebene_1
 62
7
100
AcDbLine
 10
0.551264
 20
12.563349
 30
0.0
 11
-0.559986
 21
12.563349
 31
0.0
  0
ENDSEC
  0
SECTION
  2
OBJECTS
  0
DICTIONARY
  5
C
330
0
100
AcDbDictionary
  3
ACAD_GROUP
350
D
  3
ACAD_MLINESTYLE
350
17
  0
DICTIONARY
  5
D
330
C
100
AcDbDictionary
  0
DICTIONARY
  5
1A
330
C
100
AcDbDictionary
  0
DICTIONARY
  5
17
330
C
100
AcDbDictionary
  3
STANDARD
350
18
  0
DICTIONARY
  5
19
330
C
100
AcDbDictionary
  0
ENDSEC
  0
EOF
