<?xml version="1.0" encoding="UTF-8" standalone="no"?>
<!-- Created with Inkscape (http://www.inkscape.org/) -->

<svg
   xmlns:dc="http://purl.org/dc/elements/1.1/"
   xmlns:cc="http://creativecommons.org/ns#"
   xmlns:rdf="http://www.w3.org/1999/02/22-rdf-syntax-ns#"
   xmlns:svg="http://www.w3.org/2000/svg"
   xmlns="http://www.w3.org/2000/svg"
   xmlns:sodipodi="http://sodipodi.sourceforge.net/DTD/sodipodi-0.dtd"
   xmlns:inkscape="http://www.inkscape.org/namespaces/inkscape"
   width="210mm"
   height="297mm"
   id="svg5316"
   version="1.1"
   inkscape:version="0.48.3.1 r9886"
   sodipodi:docname="Neues Dokument 19">
  <defs
     id="defs5318" />
  <sodipodi:namedview
     id="base"
     pagecolor="#ffffff"
     bordercolor="#666666"
     borderopacity="1.0"
     inkscape:pageopacity="0.0"
     inkscape:pageshadow="2"
     inkscape:zoom="0.35"
     inkscape:cx="350"
     inkscape:cy="520"
     inkscape:document-units="px"
     inkscape:current-layer="layer1"
     showgrid="false"
     inkscape:window-width="1615"
     inkscape:window-height="1026"
     inkscape:window-x="1985"
     inkscape:window-y="24"
     inkscape:window-maximized="1" />
  <metadata
     id="metadata5321">
    <rdf:RDF>
      <cc:Work
         rdf:about="">
        <dc:format>image/svg+xml</dc:format>
        <dc:type
           rdf:resource="http://purl.org/dc/dcmitype/StillImage" />
        <dc:title></dc:title>
      </cc:Work>
    </rdf:RDF>
  </metadata>
  <g
     inkscape:label="Ebene 1"
     inkscape:groupmode="layer"
     id="layer1">
    <path
       inkscape:connector-curvature="0"
       style="color:#000000;fill:#008000;fill-opacity:0.49673205;fill-rule:nonzero;stroke:none;stroke-width:0.65905511;marker:none;visibility:visible;display:inline;overflow:visible;enable-background:accumulate"
       d="m 25.102631,783.76844 0,217.18746 148.812599,0 0,-35.43746 42.5312,0 0,35.43746 184.25,0 0,-35.43746 42.5312,0 0,35.43746 148.8126,0 0,-217.18746 -566.937599,0 z m 248.031299,16.21875 c 5.3326,0 9.6563,4.32366 9.6563,9.65625 0,5.33259 -4.3237,9.625 -9.6563,9.625 -5.3326,0 -9.6563,-4.29241 -9.6563,-9.625 0,-5.33259 4.3237,-9.65625 9.6563,-9.65625 z m 70.875,0 c 5.3326,0 9.6563,4.32366 9.6563,9.65625 0,5.33259 -4.3237,9.625 -9.6563,9.625 -5.3326,0 -9.6563,-4.29241 -9.6563,-9.625 0,-5.33259 4.3237,-9.65625 9.6563,-9.65625 z m -283.468699,39.75 c 5.3813,0 9.75,4.33724 9.75,9.71875 0,5.38151 -4.3687,9.75 -9.75,9.75 -5.3817,0 -9.75,-4.36849 -9.75,-9.75 0,-5.38151 4.3682,-9.71875 9.75,-9.71875 z m 496.062399,0 c 5.3816,0 9.75,4.33724 9.75,9.71875 0,5.38151 -4.3684,9.75 -9.75,9.75 -5.3814,0 -9.75,-4.36849 -9.75,-9.75 0,-5.38151 4.3686,-9.71875 9.75,-9.71875 z m -283.4374,43.4375 2.75,0.34375 2.5624,1 2.3126,1.53125 1.8124,2.09375 1.25,2.4375 0.6876,2.71875 0,2.75 -0.6876,2.6875 -1.25,2.46875 -1.8124,2.0625 -2.3126,1.53125 -2.5624,1.03125 -2.75,0.34375 -2.75,-0.34375 -2.5938,-1.03125 -2.2812,-1.53125 -1.8126,-2.0625 -1.3124,-2.46875 -0.6563,-2.6875 0,-2.75 0.6563,-2.71875 1.3124,-2.4375 1.8126,-2.09375 2.2812,-1.53125 2.5938,-1 2.75,-0.34375 z m 70.875,0 2.75,0.34375 2.5624,1 2.3126,1.53125 1.8124,2.09375 1.25,2.4375 0.6876,2.71875 0,2.75 -0.6876,2.6875 -1.25,2.46875 -1.8124,2.0625 -2.3126,1.53125 -2.5624,1.03125 -2.75,0.34375 -2.75,-0.34375 -2.5938,-1.03125 -2.2812,-1.53125 -1.8126,-2.0625 -1.3124,-2.46875 -0.6563,-2.6875 0,-2.75 0.6563,-2.71875 1.3124,-2.4375 1.8126,-2.09375 2.2812,-1.53125 2.5938,-1 2.75,-0.34375 z m -202.875,72.59375 c 5.3813,0 9.7187,4.36849 9.7187,9.75 0,5.38151 -4.3374,9.75 -9.7187,9.75 -5.3817,0 -9.75,-4.36849 -9.75,-9.75 0,-5.38151 4.3682,-9.75 9.75,-9.75 z m 334.8124,0 c 5.3816,0 9.75,4.36849 9.75,9.75 0,5.38151 -4.3684,9.75 -9.75,9.75 -5.3814,0 -9.7187,-4.36849 -9.7187,-9.75 0,-5.38151 4.3371,-9.75 9.7187,-9.75 z"
       id="rect20821" />
  </g>
</svg>
